<svg width="110" height="110" viewBox="0 0 110 110" fill="none" xmlns="http://www.w3.org/2000/svg">
<path d="M36.4854 43.2178L57.5841 64.3165C58.2114 64.9438 59.0426 65.2581 59.8737 65.2581C60.7036 65.2581 61.5348 64.9438 62.162 64.3165L65.5581 60.9217L39.8815 35.2438L36.4854 38.6399C35.8581 39.2671 35.5439 40.0983 35.5439 40.9282C35.5439 41.7594 35.8581 42.5905 36.4854 43.2178ZM20.2932 90.4581L16.7763 96.9087C16.3322 97.7399 16.1997 98.6684 16.3581 99.536C16.5153 100.405 16.9646 101.224 17.6724 101.839C18.3815 102.453 19.2594 102.781 20.1426 102.814C21.0283 102.846 21.9309 102.585 22.6841 102.024C23.4387 101.465 23.9464 100.675 24.1555 99.8022C24.3633 98.9282 24.2776 97.949 23.8516 96.9996L20.2932 90.4581ZM13.8867 95.3399L18.8516 86.2373C18.9984 85.9684 19.2205 85.7373 19.5088 85.5801C20.3049 85.1464 21.3036 85.4412 21.7374 86.2373L26.8503 95.6373C27.588 97.2671 27.7257 98.9918 27.3503 100.563C26.962 102.181 26.0296 103.636 24.6426 104.666C23.2711 105.685 21.6374 106.159 20.0257 106.1C18.4101 106.04 16.8127 105.442 15.5218 104.324C14.2309 103.205 13.4127 101.706 13.1244 100.115C12.8348 98.5243 13.0711 96.8373 13.8867 95.3399ZM56.8672 41.91L59.7932 31.971C60.2789 30.3295 61.3088 28.9646 62.6361 28.0464C63.9646 27.1269 65.601 26.6464 67.301 26.7684C69.0062 26.8892 70.5581 27.5996 71.7426 28.6983C72.9257 29.7957 73.7478 31.2905 73.9971 32.9814C74.2491 34.6892 73.8815 36.3736 73.014 37.7905C72.1685 39.1697 70.8478 40.2918 69.1672 40.9243L58.9075 43.9581C58.0361 44.2139 57.1218 43.7152 56.8659 42.8438C56.7724 42.5269 56.7802 42.2048 56.8672 41.91ZM62.949 32.8983L60.8737 39.9477L68.049 37.8282C69.001 37.4594 69.7413 36.8347 70.2062 36.0762C70.6763 35.31 70.8737 34.3918 70.7374 33.4594C70.601 32.5321 70.149 31.71 69.501 31.1087C68.8542 30.5087 68.0049 30.1191 67.0698 30.0542C66.1309 29.9879 65.2309 30.2503 64.5036 30.7529C63.7776 31.2542 63.214 32.0022 62.949 32.8983ZM67.8906 58.5892L86.9841 39.4944L61.3075 13.8178L42.214 32.9113L67.8906 58.5892ZM89.3166 37.162L92.7101 33.7684C93.3374 33.1412 93.6516 32.31 93.6516 31.4788C93.6516 30.649 93.3374 29.8178 92.7101 29.1905L71.6114 8.09182C70.9841 7.46455 70.1529 7.15026 69.3231 7.15026C68.4919 7.15026 67.6607 7.46455 67.0335 8.09182L63.64 11.4853L89.3166 37.162ZM31.4088 64.2347L20.6101 79.3009C20.5179 79.4295 20.4776 79.5827 20.4893 79.7256C20.4971 79.8762 20.5737 80.0191 20.6789 80.1243C20.7919 80.2373 20.9348 80.3035 21.0711 80.3139C21.2179 80.3256 21.3737 80.284 21.5023 80.1918L36.5685 69.3944L31.4088 64.2347ZM38.9309 71.7568L23.4218 82.8723C22.6374 83.4347 21.7114 83.6723 20.814 83.5996C19.9075 83.5256 19.0296 83.1399 18.3464 82.4568C17.6763 81.7866 17.2893 80.936 17.2036 79.9957C17.1283 79.0944 17.3672 78.1671 17.9296 77.3814L29.0464 61.8723L26.2464 59.0723C25.6036 58.4295 25.6036 57.3827 26.2464 56.7399L30.3075 52.6866L33.4309 44.6931C32.64 43.5697 32.2451 42.2477 32.2451 40.9282C32.2451 39.2555 32.8802 37.5801 34.1529 36.3074C44.3361 26.1256 54.5192 15.9438 64.701 5.75935C65.9737 4.48663 67.649 3.85156 69.3231 3.85156C70.9958 3.85156 72.6711 4.48663 73.9439 5.75935L95.0426 26.8581C96.3153 28.1308 96.9503 29.8061 96.9503 31.4788C96.9503 33.1529 96.3153 34.8282 95.0426 36.1009C84.8581 46.2814 74.6763 56.4646 64.4945 66.649C63.2218 67.9217 61.5464 68.5568 59.8737 68.5568C58.5542 68.5568 57.2335 68.162 56.1101 67.371L48.127 70.4905L44.062 74.5555C43.4192 75.1983 42.3724 75.1983 41.7296 74.5555L38.9309 71.7568ZM33.6425 53.1996L47.6062 67.1594L53.4698 64.8671L35.9348 47.3321L33.6425 53.1996ZM44.8672 69.0853L31.7127 55.9321L29.7426 57.9035L42.8958 71.0568L44.8672 69.0853Z" fill="#0590DA"/>
</svg>
