<svg width="110" height="110" viewBox="0 0 110 110" fill="none" xmlns="http://www.w3.org/2000/svg">
<g clip-path="url(#clip0_123_1586)">
<path d="M108.46 1.54L108.372 1.43C107.426 0.55 106.172 0 104.786 0H95.1278C93.6978 0 92.3998 0.594003 91.4538 1.54C90.5078 2.464 89.9138 3.784 89.9138 5.214V24.53C89.9138 27.412 88.7258 30.03 86.8338 31.922C85.3158 33.462 83.3138 34.518 81.0918 34.87V34.408C81.0918 32.934 80.6078 31.57 79.8158 30.558C78.9358 29.436 77.7038 28.754 76.3178 28.754H60.6978C59.3118 28.754 58.0798 29.436 57.1998 30.558C56.4078 31.57 55.9238 32.934 55.9238 34.408V34.87C53.7018 34.518 51.7218 33.462 50.1818 31.922C48.2898 30.03 47.1018 27.412 47.1018 24.53V5.214C47.1018 3.784 46.5298 2.464 45.5838 1.54C44.6378 0.594003 43.3178 0 41.8878 0H29.2378H15.7298C14.5638 0 13.4858 0.484003 12.7158 1.254C11.9238 2.046 11.4398 3.10201 11.4398 4.29V8.05201C11.4398 9.24 11.9238 10.318 12.7158 11.088C12.8502 11.2224 12.9969 11.3445 13.1489 11.4604L1.18779 32.076C0.857789 32.67 0.593787 33.33 0.439784 33.99C0.263787 34.672 0.175781 35.354 0.175781 36.058C0.175781 38.368 1.12178 40.502 2.66178 42.02C2.96032 42.3229 3.28257 42.6018 3.62421 42.856C3.28257 43.1102 2.96032 43.3891 2.66178 43.692C1.12178 45.21 0.175781 47.322 0.175781 49.654C0.175781 51.986 1.12178 54.098 2.66178 55.616C2.96032 55.9189 3.28257 56.1978 3.62421 56.452C3.28257 56.7062 2.96032 56.9851 2.66178 57.288C1.12178 58.806 0.175781 60.918 0.175781 63.25C0.175781 65.582 1.12178 67.694 2.66178 69.212C2.9603 69.5149 3.28258 69.7938 3.62421 70.048C3.28258 70.3022 2.9603 70.5811 2.66178 70.884C1.12178 72.424 0.175781 74.536 0.175781 76.846C0.175781 79.178 1.12178 81.29 2.66178 82.83C2.95969 83.1279 3.2812 83.4029 3.62204 83.6539C3.2812 83.9063 2.95969 84.1821 2.66178 84.48C1.12178 86.02 0.175781 88.132 0.175781 90.442V101.552C0.175781 103.884 1.12178 105.996 2.66178 107.514C4.17978 109.054 6.29178 110 8.62379 110H36.1018C36.3933 110 36.6813 109.985 36.9652 109.956L65.3618 110H93.0158C97.7018 110 101.948 108.086 105.006 105.006C108.086 101.948 110 97.702 110 93.016V5.214C110 3.784 109.406 2.464 108.46 1.54ZM14.7398 4.29C14.7398 4.004 14.8498 3.76201 15.0258 3.586H15.0478C15.2238 3.41 15.4658 3.3 15.7298 3.3H29.2378C29.5018 3.3 29.7438 3.41 29.9198 3.586L29.9858 3.63C30.1178 3.806 30.2278 4.04801 30.2278 4.29V8.05201C30.2278 8.316 30.1178 8.58 29.9198 8.756C29.7438 8.93201 29.5018 9.04201 29.2378 9.04201H15.7298C15.4658 9.04201 15.2238 8.93201 15.0478 8.756C14.8498 8.58 14.7398 8.316 14.7398 8.05201V4.29ZM4.99379 39.688C4.04779 38.764 3.47578 37.466 3.47578 36.058C3.47578 35.618 3.51978 35.2 3.62978 34.804C3.73978 34.386 3.89379 33.99 4.06978 33.638L16.4338 12.342H28.2918L40.6558 33.638C40.8538 33.99 41.0078 34.386 41.0958 34.804C41.2058 35.2 41.2498 35.618 41.2498 36.058C41.2498 37.466 40.6778 38.764 39.7318 39.688C38.8078 40.634 37.5098 41.206 36.1018 41.206H8.62379C7.21578 41.206 5.91779 40.634 4.99379 39.688ZM4.99379 53.284C4.04779 52.36 3.47578 51.062 3.47578 49.654C3.47578 48.246 4.04779 46.948 4.99379 46.024C5.91779 45.078 7.21578 44.506 8.62379 44.506H36.1018C37.5098 44.506 38.8078 45.078 39.7318 46.024C40.6778 46.948 41.2498 48.246 41.2498 49.654C41.2498 51.062 40.6778 52.36 39.7318 53.284C38.8078 54.23 37.5098 54.802 36.1018 54.802H8.62379C7.21578 54.802 5.91779 54.23 4.99379 53.284ZM4.99379 66.88C4.04779 65.956 3.47578 64.658 3.47578 63.25C3.47578 61.842 4.04779 60.544 4.99379 59.62C5.91779 58.674 7.21578 58.102 8.62379 58.102H36.1018C37.5098 58.102 38.8078 58.674 39.7318 59.62C40.6778 60.544 41.2498 61.842 41.2498 63.25C41.2498 64.658 40.6778 65.956 39.7318 66.88C38.8078 67.826 37.5098 68.398 36.1018 68.398H8.62379C7.21578 68.398 5.91779 67.826 4.99379 66.88ZM4.99379 80.498C4.04779 79.552 3.47578 78.276 3.47578 76.846C3.47578 75.438 4.04779 74.162 4.99379 73.216C5.91779 72.292 7.21578 71.698 8.62379 71.698H36.1018C37.5098 71.698 38.8078 72.292 39.7318 73.216C40.6778 74.162 41.2498 75.438 41.2498 76.846C41.2498 78.276 40.6778 79.552 39.7318 80.498C38.8078 81.422 37.5098 81.994 36.1018 81.994H8.62379C7.21578 81.994 5.91779 81.422 4.99379 80.498ZM4.99379 105.182C4.04779 104.258 3.47578 102.96 3.47578 101.552V90.442C3.47578 89.034 4.04779 87.758 4.99379 86.812C5.91779 85.888 7.21578 85.294 8.62379 85.294H36.1018C37.5098 85.294 38.8078 85.888 39.7318 86.812C40.6778 87.758 41.2498 89.034 41.2498 90.442V101.552C41.2498 102.96 40.6778 104.258 39.7318 105.182C38.8078 106.128 37.5098 106.7 36.1018 106.7H8.62379C7.21578 106.7 5.91779 106.128 4.99379 105.182ZM106.7 93.016C106.7 96.778 105.16 100.21 102.674 102.674C100.21 105.16 96.7778 106.7 93.0158 106.7H65.3618L42.7994 106.683C43.8985 105.265 44.5498 103.485 44.5498 101.552V90.442C44.5498 88.132 43.6038 86.02 42.0638 84.48C41.7659 84.1821 41.4444 83.9063 41.1035 83.6539C41.4444 83.4029 41.7659 83.1279 42.0638 82.83C43.6038 81.29 44.5498 79.178 44.5498 76.846C44.5498 74.536 43.6038 72.424 42.0638 70.884C41.7653 70.5811 41.443 70.3022 41.1014 70.048C41.443 69.7938 41.7653 69.5149 42.0638 69.212C43.6038 67.694 44.5498 65.582 44.5498 63.25C44.5498 60.918 43.6038 58.806 42.0638 57.288C41.7652 56.9851 41.443 56.7062 41.1014 56.452C41.443 56.1978 41.7652 55.9189 42.0638 55.616C43.6038 54.098 44.5498 51.986 44.5498 49.654C44.5498 47.322 43.6038 45.21 42.0638 43.692C41.7652 43.3891 41.443 43.1102 41.1014 42.856C41.443 42.6018 41.7652 42.3229 42.0638 42.02C43.6038 40.502 44.5498 38.368 44.5498 36.058C44.5498 35.354 44.4618 34.672 44.3078 34.012C44.1318 33.33 43.8678 32.67 43.5378 32.076L31.6512 11.5854C31.8665 11.4372 32.0684 11.2714 32.2518 11.088C33.0438 10.318 33.5278 9.24 33.5278 8.05201V4.29C33.5278 3.94973 33.4828 3.61918 33.4062 3.3H41.8878C42.4158 3.3 42.8998 3.52 43.2518 3.87201C43.5818 4.20201 43.8018 4.686 43.8018 5.214V24.53C43.8018 28.314 45.3638 31.768 47.8498 34.254C50.3358 36.762 53.7898 38.302 57.5738 38.302C58.4978 38.302 59.2238 37.554 59.2238 36.652V34.408C59.2238 33.682 59.4438 33.022 59.7958 32.582C60.0598 32.252 60.3678 32.054 60.6978 32.054H76.3178C76.6478 32.054 76.9778 32.252 77.2198 32.582C77.5718 33.022 77.7918 33.66 77.7918 34.408V36.652C77.7918 37.554 78.5398 38.302 79.4418 38.302C83.2258 38.302 86.6798 36.762 89.1658 34.254C91.6738 31.768 93.2138 28.314 93.2138 24.53V5.214C93.2138 4.686 93.4338 4.20201 93.7858 3.87201L93.7638 3.85C94.1158 3.52 94.5998 3.3 95.1278 3.3H104.786C105.292 3.3 105.732 3.49801 106.084 3.806L106.128 3.87201C106.48 4.20201 106.7 4.686 106.7 5.214V93.016Z" fill="#0590DA"/>
</g>
<defs>
<clipPath id="clip0_123_1586">
<rect width="110" height="110" fill="white"/>
</clipPath>
</defs>
</svg>
