<svg width="110" height="110" viewBox="0 0 110 110" fill="none" xmlns="http://www.w3.org/2000/svg">
<g clip-path="url(#clip0_123_1641)">
<path d="M101.406 0H42.9688C40.6904 0.00267693 38.5061 0.908947 36.895 2.52001C35.2839 4.13107 34.3777 6.31537 34.375 8.59375V25.7812C34.3756 27.6614 34.9967 29.4888 36.142 30.9799C36.6968 30.9576 37.2523 30.9375 37.8125 30.9375C39.0294 30.9375 40.2307 31.0032 41.4209 31.1074C41.9139 31.1504 42.4043 31.2023 42.8921 31.2631C43.0166 31.2785 43.1405 31.2956 43.2647 31.3122C43.7421 31.3755 44.2182 31.4434 44.6905 31.5229C44.7588 31.5345 44.8263 31.5488 44.8945 31.5607C45.7365 31.7068 46.5681 31.8828 47.3918 32.0793C47.6291 32.1361 47.8681 32.1885 48.1039 32.2494C48.4121 32.3288 48.7166 32.4172 49.022 32.5035C49.1109 32.5287 49.1989 32.5557 49.2876 32.5815C49.7892 32.7271 50.2884 32.8784 50.7819 33.0422C50.9665 33.1037 51.1486 33.1707 51.332 33.2347C51.79 33.3941 52.2463 33.5568 52.6968 33.7318C53.2271 33.938 53.7555 34.1479 54.2751 34.375H57.6721L56.5763 35.4708C57.6366 36.0149 58.6698 36.602 59.6759 37.2321L62.533 34.375H67.7429L62.756 39.362C63.5509 39.9675 64.3201 40.6044 65.0688 41.2642C66.2869 42.3369 67.4412 43.4799 68.5257 44.6875H106.562V51.5625H73.5132C73.721 51.9209 73.9147 52.2879 74.1119 52.6528C74.2944 52.9906 74.4743 53.3301 74.6476 53.6734C74.7932 53.9621 74.9354 54.2527 75.0743 54.5453C75.9913 56.4664 76.7571 58.4561 77.3648 60.4962L78.7436 61.875H77.7572C78.0483 63.0019 78.2828 64.1507 78.4787 65.3125H101.406C102.047 65.3106 102.686 65.2369 103.311 65.0925C103.393 65.0776 103.474 65.0568 103.553 65.0302C105.395 64.5535 107.028 63.4789 108.195 61.9749C109.362 60.4708 109.996 58.6223 110 56.7188V39.5312C109.999 38.195 109.685 36.8776 109.085 35.6839C108.484 34.4903 107.613 33.4535 106.54 32.6562C107.613 31.859 108.484 30.8222 109.085 29.6286C109.685 28.4349 109.999 27.1175 110 25.7812V8.59375C109.997 6.31537 109.091 4.13107 107.48 2.52001C105.869 0.908947 103.685 0.00267693 101.406 0ZM86.4855 41.25L93.3605 34.375H99.0732L92.1982 41.25H86.4855ZM76.0815 41.25L82.9565 34.375H88.4997L81.6247 41.25H76.0815ZM62.8477 30.9375L55.9727 24.0625H61.5158L68.3908 30.9375H62.8477ZM73.2517 30.9375L66.3767 24.0625H71.8686L78.7436 30.9375H73.2517ZM81.9394 24.0625L88.8144 30.9375H83.6044L76.7294 24.0625H81.9394ZM93.6752 30.9375L86.8002 24.0625H92.1982L99.0732 30.9375H93.6752ZM37.8125 20.625V13.75H106.562V20.625H37.8125ZM57.6721 3.4375L50.7971 10.3125H45.3992L52.2742 3.4375H57.6721ZM67.7429 3.4375L60.8679 10.3125H55.658L62.533 3.4375H67.7429ZM78.0957 3.4375L71.2207 10.3125H65.7288L72.6038 3.4375H78.0957ZM88.4997 3.4375L81.6247 10.3125H76.0815L82.9565 3.4375H88.4997ZM99.0732 3.4375L92.1982 10.3125H86.4855L93.3605 3.4375H99.0732ZM106.562 8.59375V10.3125H97.059L103.49 3.8813C104.403 4.28537 105.18 4.94566 105.725 5.78211C106.27 6.61856 106.561 7.59524 106.562 8.59375ZM42.9688 3.4375H47.4133L40.5383 10.3125H37.8125V8.59375C37.814 7.22669 38.3577 5.91604 39.3244 4.94938C40.291 3.98272 41.6017 3.43899 42.9688 3.4375ZM37.8125 25.7812V24.0625H40.5383L47.4133 30.9375H42.9688C41.6017 30.936 40.291 30.3923 39.3244 29.4256C38.3577 28.459 37.814 27.1483 37.8125 25.7812ZM52.2742 30.9375L45.3992 24.0625H51.1118L57.9868 30.9375H52.2742ZM65.7288 41.25L72.6038 34.375H78.0957L71.2207 41.25H65.7288ZM93.6752 61.875L86.8002 55H92.1982L99.0732 61.875H93.6752ZM76.7294 55H81.9394L88.8144 61.875H83.6044L76.7294 55ZM103.49 61.4312L97.059 55H106.562V56.7188C106.561 57.7173 106.27 58.6939 105.725 59.5304C105.18 60.3668 104.403 61.0271 103.49 61.4312ZM106.562 41.25H97.059L103.49 34.8188C104.403 35.2229 105.18 35.8832 105.725 36.7196C106.27 37.5561 106.561 38.5327 106.562 39.5312V41.25ZM103.49 30.4937L97.059 24.0625H106.562V25.7812C106.561 26.7798 106.27 27.7564 105.725 28.5929C105.18 29.4293 104.403 30.0896 103.49 30.4937Z" fill="#0590DA"/>
<path d="M0.000576915 72.2111C0.00187984 76.1546 0.622647 80.0735 1.84018 83.8244C1.84485 83.8403 1.84534 83.8563 1.85049 83.8722C1.85448 83.8845 1.86338 83.8933 1.86768 83.9055C3.07356 87.5898 4.84028 91.0661 7.10557 94.212C7.14225 94.287 7.18442 94.3592 7.23172 94.428C7.26846 94.4717 7.30743 94.5136 7.34847 94.5533C9.62278 97.6425 12.3503 100.371 15.4389 102.646C15.4857 102.693 15.5352 102.737 15.5871 102.778C15.6282 102.808 15.6756 102.819 15.7183 102.845C18.882 105.134 22.382 106.917 26.093 108.132C26.111 108.138 26.1264 108.149 26.1447 108.154C26.1543 108.158 26.164 108.156 26.1736 108.159C33.7478 110.617 41.9055 110.613 49.4778 108.15C49.4898 108.147 49.5019 108.148 49.514 108.144C49.5366 108.137 49.5557 108.124 49.5778 108.116C53.2719 106.902 56.7561 105.124 59.9068 102.845C59.9495 102.819 59.9969 102.808 60.038 102.778C60.0899 102.737 60.1394 102.693 60.1862 102.646C63.284 100.364 66.0185 97.6258 68.2967 94.5251C68.3381 94.485 68.3773 94.4428 68.4144 94.3986C68.4607 94.3308 68.502 94.2597 68.5381 94.1859C70.7945 91.0469 72.5548 87.5796 73.7573 83.9055C73.7616 83.8933 73.7705 83.8845 73.7745 83.8722C73.7797 83.8563 73.7802 83.8404 73.7848 83.8244C75.005 80.066 75.626 76.139 75.625 72.1875L75.6246 72.1734L75.625 72.1699L75.6244 72.1639C75.6231 68.2204 75.0024 64.3015 73.7848 60.5506C73.7802 60.5347 73.7797 60.5187 73.7745 60.5029C73.7678 60.4824 73.7564 60.4651 73.749 60.445C72.5434 56.7698 70.7796 53.3019 68.5195 50.163C68.4581 50.0244 68.3693 49.8997 68.2585 49.7963C65.9877 46.7174 63.2665 43.9978 60.1862 41.7289C60.0859 41.6214 59.9649 41.5353 59.8304 41.4758C56.6867 39.2131 53.2132 37.4482 49.532 36.2432C49.5141 36.2367 49.4987 36.2264 49.4804 36.2205C49.4664 36.216 49.4523 36.2155 49.4384 36.2114C41.8732 33.7601 33.7268 33.7629 26.1633 36.2194C26.1459 36.2244 26.1284 36.225 26.1111 36.2305C26.0885 36.2379 26.0694 36.2505 26.0473 36.2587C22.3833 37.4631 18.9257 39.2225 15.7952 41.4754C15.723 41.5109 15.6535 41.5514 15.5871 41.5966C15.5351 41.6378 15.4856 41.682 15.4389 41.7289C12.3494 44.0049 9.62113 46.7342 7.34639 49.8246C7.2361 49.9272 7.14784 50.0513 7.08697 50.1891C4.83571 53.3211 3.07829 56.78 1.87602 60.445C1.86868 60.4651 1.85719 60.4824 1.85053 60.5029C1.84537 60.5187 1.84486 60.5347 1.84022 60.5506C0.620036 64.309 -0.000968333 68.236 1.13334e-06 72.1875L0.000370665 72.2016L1.13334e-06 72.2051L0.000576915 72.2111ZM16.2547 45.4399L17.7322 47.4738C18.0003 47.8421 18.4038 48.0889 18.8538 48.16C19.3038 48.231 19.7637 48.1205 20.1323 47.8526C20.5009 47.5848 20.748 47.1816 20.8195 46.7316C20.891 46.2817 20.7809 45.8217 20.5134 45.4529L19.0343 43.4169C21.0826 42.0747 23.2689 40.9559 25.5556 40.0796L26.3377 42.4837C26.4788 42.9173 26.7864 43.277 27.1927 43.4838C27.394 43.5862 27.6134 43.648 27.8385 43.6656C28.0635 43.6832 28.2899 43.6563 28.5046 43.5864C28.7193 43.5166 28.9181 43.4051 29.0897 43.2584C29.2613 43.1117 29.4023 42.9326 29.5047 42.7314C29.6071 42.5302 29.6689 42.3107 29.6865 42.0857C29.7041 41.8606 29.6772 41.6342 29.6073 41.4195L28.8243 39.0127C31.1988 38.3667 33.636 37.979 36.0938 37.8561V40.3906C36.0938 40.8465 36.2748 41.2836 36.5972 41.606C36.9195 41.9283 37.3567 42.1094 37.8125 42.1094C38.2683 42.1094 38.7055 41.9283 39.0278 41.606C39.3502 41.2836 39.5312 40.8465 39.5312 40.3906V37.8561C41.9784 37.9783 44.4054 38.3632 46.7704 39.004L45.9892 41.412C45.9179 41.6271 45.8898 41.8542 45.9066 42.0802C45.9234 42.3062 45.9848 42.5266 46.0871 42.7288C46.1894 42.931 46.3307 43.111 46.5029 43.2584C46.6751 43.4058 46.8747 43.5176 47.0902 43.5876C47.3058 43.6575 47.533 43.6841 47.7589 43.6659C47.9848 43.6477 48.2049 43.5849 48.4064 43.4813C48.608 43.3777 48.7871 43.2353 48.9333 43.0622C49.0796 42.8891 49.1902 42.6888 49.2588 42.4728L50.0391 40.0676C52.3368 40.9458 54.5333 42.0686 56.5907 43.4169L55.1116 45.4529C54.8441 45.8217 54.734 46.2817 54.8055 46.7316C54.877 47.1816 55.1241 47.5848 55.4927 47.8526C55.8613 48.1205 56.3212 48.231 56.7712 48.1599C57.2212 48.0889 57.6247 47.8421 57.8928 47.4738L59.3703 45.4399C61.2749 46.978 63.0113 48.7135 64.5503 50.6173L62.517 52.0963C62.1484 52.3645 61.9015 52.7681 61.8305 53.2184C61.7595 53.6687 61.8703 54.1287 62.1385 54.4973C62.4067 54.8659 62.8104 55.1128 63.2607 55.1838C63.711 55.2548 64.171 55.144 64.5396 54.8758L66.5745 53.3957C67.9235 55.4525 69.0473 57.6485 69.9265 59.9458L67.5222 60.7269C67.0887 60.8678 66.7288 61.1752 66.5218 61.5814C66.3149 61.9876 66.2777 62.4594 66.4186 62.893C66.5595 63.3266 66.8669 63.6864 67.2731 63.8934C67.6793 64.1004 68.1511 64.1375 68.5847 63.9966L70.9917 63.2146C71.6339 65.579 72.02 68.0057 72.1435 70.4527L69.6086 70.4537C69.1527 70.4538 68.7156 70.635 68.3934 70.9574C68.0711 71.2798 67.8901 71.717 67.8902 72.1729C67.8904 72.6287 68.0716 73.0658 68.394 73.3881C68.7164 73.7103 69.1536 73.8913 69.6094 73.8912L72.1444 73.8902C72.0229 76.348 71.6364 78.7856 70.9918 81.1605L68.5847 80.3785C68.1512 80.2376 67.6794 80.2747 67.2731 80.4817C66.8669 80.6886 66.5596 81.0485 66.4187 81.4821C66.2778 81.9157 66.3149 82.3874 66.5219 82.7937C66.7288 83.1999 67.0887 83.5072 67.5223 83.6481L69.9265 84.4293C69.0511 86.7165 67.9332 88.9033 66.5919 90.9523L64.5547 89.4741C64.3721 89.3409 64.1649 89.2451 63.9451 89.1921C63.7253 89.1391 63.4973 89.13 63.274 89.1652C63.0506 89.2005 62.8365 89.2795 62.6437 89.3976C62.451 89.5158 62.2834 89.6708 62.1507 89.8537C62.0179 90.0367 61.9225 90.2441 61.87 90.464C61.8175 90.6839 61.8089 90.912 61.8446 91.1352C61.8804 91.3584 61.9598 91.5724 62.0784 91.7649C62.1969 91.9574 62.3523 92.1246 62.5355 92.257L64.5698 93.7331C63.026 95.6466 61.2831 97.3904 59.3704 98.9351L57.8929 96.9013C57.6248 96.533 57.2213 96.2862 56.7713 96.2151C56.3212 96.1441 55.8614 96.2546 55.4928 96.5224C55.1242 96.7902 54.877 97.1934 54.8056 97.6434C54.7341 98.0934 54.8442 98.5533 55.1117 98.9222L56.5908 100.958C54.5424 102.3 52.3562 103.419 50.0695 104.295L49.2874 101.891C49.1463 101.458 48.8387 101.098 48.4323 100.891C48.026 100.684 47.5541 100.648 47.1205 100.789C46.6869 100.93 46.3272 101.237 46.1204 101.644C45.9135 102.05 45.8766 102.522 46.0178 102.956L46.8008 105.362C44.4263 106.008 41.989 106.396 39.5312 106.519V103.984C39.5312 103.529 39.3502 103.091 39.0278 102.769C38.7055 102.447 38.2683 102.266 37.8125 102.266C37.3567 102.266 36.9195 102.447 36.5972 102.769C36.2748 103.091 36.0938 103.529 36.0938 103.984V106.519C33.6466 106.397 31.2196 106.012 28.8546 105.371L29.6358 102.963C29.7731 102.53 29.7337 102.061 29.5262 101.657C29.3186 101.254 28.9598 100.948 28.528 100.808C28.0962 100.668 27.6266 100.705 27.2216 100.91C26.8166 101.115 26.5091 101.471 26.3662 101.902L25.5859 104.307C23.2882 103.429 21.0917 102.306 19.0343 100.958L20.5134 98.9221C20.7809 98.5533 20.891 98.0934 20.8195 97.6434C20.7481 97.1934 20.5009 96.7902 20.1323 96.5224C19.7637 96.2546 19.3039 96.144 18.8538 96.2151C18.4038 96.2861 18.0003 96.5329 17.7322 96.9013L16.2547 98.9351C14.3501 97.397 12.6137 95.6615 11.0747 93.7577L13.108 92.2788C13.2905 92.146 13.445 91.9785 13.5628 91.786C13.6806 91.5934 13.7593 91.3796 13.7945 91.1566C13.8296 90.9337 13.8205 90.706 13.7677 90.4865C13.7148 90.2671 13.6193 90.0602 13.4865 89.8777C13.3537 89.6952 13.1862 89.5406 12.9937 89.4229C12.8011 89.3051 12.5873 89.2263 12.3643 89.1912C12.1414 89.1561 11.9137 89.1652 11.6942 89.218C11.4748 89.2709 11.2679 89.3664 11.0854 89.4992L9.05053 90.9793C7.70149 88.9225 6.57769 86.7265 5.69852 84.4292L8.10276 83.6481C8.31745 83.5783 8.5163 83.4669 8.68795 83.3203C8.8596 83.1737 9.00069 82.9947 9.10317 82.7936C9.20564 82.5925 9.2675 82.3731 9.28521 82.1481C9.30291 81.923 9.27612 81.6967 9.20636 81.482C9.13659 81.2673 9.02523 81.0685 8.87862 80.8968C8.73201 80.7252 8.55302 80.5841 8.35189 80.4816C8.15075 80.3791 7.9314 80.3173 7.70635 80.2996C7.48131 80.2819 7.25498 80.3087 7.04029 80.3784L4.63327 81.1604C3.99114 78.796 3.60499 76.3693 3.48148 73.9223L6.01649 73.9214C6.47233 73.9212 6.90945 73.7401 7.2317 73.4177C7.55395 73.0952 7.73492 72.658 7.73481 72.2022C7.73469 71.7463 7.5535 71.3092 7.23109 70.987C6.90868 70.6647 6.47147 70.4837 6.01563 70.4839L3.48065 70.4849C3.60217 68.027 3.98862 65.5895 4.63329 63.2145L7.04031 63.9966C7.255 64.0663 7.48133 64.0931 7.70637 64.0754C7.93141 64.0577 8.15077 63.9959 8.3519 63.8934C8.55304 63.7909 8.73202 63.6498 8.87863 63.4782C9.02524 63.3065 9.13661 63.1077 9.20637 62.893C9.27614 62.6783 9.30293 62.452 9.28523 62.2269C9.26752 62.0019 9.20566 61.7825 9.10318 61.5814C9.00071 61.3803 8.85961 61.2013 8.68796 61.0547C8.51632 60.9081 8.31747 60.7967 8.10278 60.7269L5.69853 59.9458C6.57393 57.6586 7.69186 55.4718 9.03317 53.4228L11.0703 54.901C11.253 55.0341 11.4602 55.13 11.6799 55.183C11.8997 55.236 12.1278 55.2451 12.3511 55.2098C12.5744 55.1746 12.7886 55.0956 12.9813 54.9774C13.1741 54.8593 13.3416 54.7043 13.4744 54.5213C13.6072 54.3383 13.7025 54.131 13.7551 53.9111C13.8076 53.6912 13.8162 53.4631 13.7804 53.2399C13.7447 53.0166 13.6653 52.8026 13.5467 52.6101C13.4281 52.4177 13.2728 52.2504 13.0895 52.1181L11.0553 50.642C12.599 48.7285 14.342 46.9847 16.2547 45.4399Z" fill="#0590DA"/>
<path d="M37.8125 94.5313C42.2317 94.5313 46.5516 93.2208 50.226 90.7657C53.9004 88.3105 56.7643 84.8209 58.4554 80.7381C60.1466 76.6553 60.5891 72.1627 59.7269 67.8285C58.8648 63.4942 56.7368 59.5129 53.6119 56.3881C50.4871 53.2633 46.5058 51.1352 42.1716 50.2731C37.8373 49.411 33.3447 49.8534 29.2619 51.5446C25.1791 53.2357 21.6895 56.0996 19.2344 59.774C16.7792 63.4484 15.4688 67.7683 15.4688 72.1875C15.4753 78.1114 17.8315 83.7908 22.0203 87.9797C26.2092 92.1685 31.8886 94.5247 37.8125 94.5313ZM33.4401 74.9159C32.9893 74.2054 32.7241 73.3931 32.6688 72.5534C32.646 72.2108 32.5209 71.8828 32.3099 71.6119C32.0988 71.341 31.8114 71.1395 31.4847 71.0336L20.3833 67.4308L20.9137 65.7934L32.0226 69.3963C32.3483 69.5018 32.6981 69.5078 33.0272 69.4133C33.3563 69.3188 33.6497 69.1282 33.8698 68.8659C34.4089 68.2224 35.0976 67.721 35.8756 67.4056C36.1938 67.2777 36.4665 67.0575 36.6585 66.7733C36.8505 66.4891 36.9532 66.154 36.9531 65.811V54.1406H38.6719V65.811C38.6719 66.154 38.7745 66.4891 38.9665 66.7733C39.1585 67.0575 39.4312 67.2777 39.7495 67.4056C40.5274 67.721 41.2161 68.2224 41.7552 68.8658C41.9755 69.1279 42.2689 69.3183 42.5979 69.4128C42.9269 69.5073 43.2767 69.5015 43.6024 69.3962L54.7113 65.7934L55.2417 67.4307L44.1403 71.0336C43.8136 71.1395 43.5262 71.341 43.3151 71.6119C43.104 71.8828 42.979 72.2107 42.9562 72.5534C42.9009 73.393 42.6357 74.2054 42.1849 74.9158C42.0017 75.2066 41.9099 75.5457 41.9214 75.8892C41.9329 76.2327 42.0472 76.5649 42.2495 76.8427L49.1178 86.2799L47.723 87.2929L40.8615 77.854C40.6613 77.5784 40.3836 77.3685 40.0638 77.251C39.744 77.1336 39.3965 77.1138 39.0655 77.1944C38.2424 77.3958 37.3828 77.3958 36.5596 77.1944C36.2286 77.1139 35.8811 77.1337 35.5613 77.2511C35.2415 77.3686 34.9639 77.5784 34.7636 77.854L27.9021 87.2929L26.5073 86.2799L33.3755 76.8427C33.5778 76.5649 33.6921 76.2327 33.7036 75.8892C33.7151 75.5457 33.6233 75.2066 33.4401 74.9159ZM30.4685 89.6088L36.9188 80.7359C37.5131 80.7964 38.112 80.7964 38.7063 80.7359L45.1565 89.6089C42.8321 90.5889 40.3351 91.0938 37.8125 91.0938C35.29 91.0938 32.7929 90.5889 30.4685 89.6088ZM52.105 84.5427L45.6602 75.688C45.9068 75.1375 46.0944 74.5625 46.2199 73.9726L56.6463 70.5887C56.6907 71.1163 56.7188 71.6486 56.7188 72.1875C56.7215 76.7276 55.0829 81.1156 52.105 84.5427ZM53.9906 62.4135L43.5587 65.7967C43.1136 65.3956 42.6279 65.0421 42.1094 64.7418V53.7798C44.5643 54.3568 46.8794 55.4176 48.9195 56.9001C50.9595 58.3825 52.6835 60.2569 53.9906 62.4135ZM33.5156 53.7798V64.7418C32.9971 65.0421 32.5114 65.3956 32.0663 65.7967L21.6344 62.4135C22.9415 60.2569 24.6655 58.3825 26.7055 56.9001C28.7456 55.4176 31.0607 54.3568 33.5156 53.7798ZM18.9787 70.5887L29.4051 73.9726C29.5306 74.5625 29.7182 75.1375 29.9648 75.688L23.52 84.5427C20.5421 81.1157 18.9035 76.7276 18.9063 72.1875C18.9063 71.6486 18.9343 71.1163 18.9787 70.5887Z" fill="#0590DA"/>
<path d="M37.8125 76.4844C38.6623 76.4844 39.4931 76.2324 40.1997 75.7602C40.9063 75.2881 41.4571 74.617 41.7823 73.8318C42.1075 73.0467 42.1926 72.1827 42.0268 71.3492C41.861 70.5157 41.4518 69.7501 40.8508 69.1491C40.2499 68.5482 39.4843 68.139 38.6508 67.9732C37.8173 67.8074 36.9533 67.8925 36.1682 68.2177C35.383 68.5429 34.7119 69.0937 34.2398 69.8003C33.7676 70.5069 33.5156 71.3377 33.5156 72.1875C33.517 73.3267 33.9701 74.4188 34.7756 75.2244C35.5812 76.0299 36.6733 76.483 37.8125 76.4844ZM37.8125 71.3281C37.9825 71.3281 38.1486 71.3785 38.2899 71.473C38.4313 71.5674 38.5414 71.7016 38.6065 71.8586C38.6715 72.0157 38.6885 72.1885 38.6554 72.3552C38.6222 72.5219 38.5404 72.675 38.4202 72.7952C38.3 72.9154 38.1469 72.9972 37.9802 73.0304C37.8135 73.0635 37.6407 73.0465 37.4836 72.9815C37.3266 72.9164 37.1924 72.8063 37.098 72.6649C37.0035 72.5236 36.9531 72.3575 36.9531 72.1875C36.9533 71.9596 37.0439 71.7411 37.205 71.58C37.3661 71.4189 37.5846 71.3283 37.8125 71.3281Z" fill="#0590DA"/>
</g>
<defs>
<clipPath id="clip0_123_1641">
<rect width="110" height="110" fill="white"/>
</clipPath>
</defs>
</svg>
