<svg width="110" height="110" viewBox="0 0 110 110" fill="none" xmlns="http://www.w3.org/2000/svg">
<path d="M102.832 16.8953C104.139 15.5891 104.843 13.8703 104.843 12.0312C104.843 10.1922 104.121 8.47344 102.832 7.16719C101.543 5.86094 99.8073 5.15625 97.9683 5.15625C96.1292 5.15625 94.4105 5.87813 93.1042 7.16719C91.9183 8.35313 91.248 9.9 91.1277 11.5672L81.9495 20.7453C74.3355 15.2797 65.0542 12.0312 54.9823 12.0312C44.9105 12.0312 35.612 15.2625 27.998 20.7281L18.837 11.5672C18.7339 9.9 18.0636 8.35313 16.8605 7.16719C15.5714 5.86094 13.8355 5.15625 11.9964 5.15625C10.1573 5.15625 8.43859 5.87813 7.13234 7.16719C5.82609 8.47344 5.1214 10.1922 5.1214 12.0312C5.1214 13.8703 5.84328 15.5891 7.13234 16.8953C8.31828 18.0812 9.86515 18.7516 11.5323 18.8719L20.298 27.6375C12.9933 35.8359 8.5589 46.6297 8.5589 58.4375C8.5589 70.2453 13.337 81.8297 21.123 90.1484C16.8605 91.1109 12.2714 90.8187 7.42453 89.2375C6.51359 88.9453 5.55109 89.4438 5.2589 90.3375C4.96672 91.2484 5.46515 92.2109 6.3589 92.5031C9.72765 93.6031 12.9933 94.1359 16.1386 94.1359C18.837 94.1359 21.4323 93.7063 23.9417 92.9156C24.8355 93.7234 25.7808 94.4969 26.7261 95.2359C23.4261 98.45 17.187 102.352 7.01203 101.183C6.06672 101.062 5.22453 101.75 5.10422 102.695C5.00109 103.641 5.6714 104.483 6.61671 104.603C8.02609 104.758 9.36672 104.844 10.6386 104.844C20.2636 104.844 26.2964 100.598 29.562 97.2641C36.8667 102.059 45.5808 104.844 54.948 104.844C80.5402 104.844 101.354 84.0297 101.354 58.4375C101.354 46.6297 96.9026 35.8359 89.6151 27.6375L98.3808 18.8719C100.048 18.7516 101.595 18.0812 102.781 16.8953H102.832ZM79.5089 23.2031L74.8511 27.8609C69.2995 28.2734 63.8683 28.8234 58.6605 29.5109C55.2402 27.5172 51.9402 25.7125 48.7948 24.0625C57.3027 22.6188 66.3605 21.5359 75.8308 20.8828C77.1026 21.5875 78.323 22.3781 79.4917 23.2031H79.5089ZM71.087 31.625L67.6839 35.0281C66.2745 34.1172 64.8823 33.2406 63.4901 32.3984C65.9823 32.1063 68.5089 31.8484 71.0698 31.625H71.087ZM55.0167 15.4516C60.0698 15.4516 64.8995 16.3453 69.4027 17.9437C57.337 18.2359 43.9823 21.5016 43.862 21.5531C41.9027 20.5906 40.0292 19.6969 38.2245 18.8719C43.3808 16.6719 49.0526 15.4516 55.0167 15.4516ZM14.4714 14.4375C13.1652 15.7437 10.9136 15.7437 9.60734 14.4375C8.95422 13.7844 8.59328 12.925 8.59328 12.0141C8.59328 11.1031 8.95422 10.2266 9.60734 9.59062C10.2605 8.95469 11.1198 8.57656 12.0308 8.57656C12.9417 8.57656 13.8183 8.9375 14.4542 9.59062C15.0902 10.2437 15.4683 11.1031 15.4683 12.0141C15.4683 12.925 15.1073 13.8016 14.4542 14.4375H14.4714ZM15.5198 17.9094C16.0183 17.6172 16.4995 17.2906 16.912 16.8609C17.3245 16.4484 17.6683 15.9672 17.9605 15.4688L25.2995 22.8078C24.423 23.5469 23.5636 24.3203 22.7386 25.1109L15.5198 17.8922V17.9094ZM13.9214 45.8391C15.7777 46.5438 18.1667 47.5063 21.0198 48.7438C18.098 49.775 15.262 50.8922 12.512 52.0609C12.8214 49.9297 13.3027 47.85 13.9214 45.8391ZM12.048 58.4031C12.048 57.5953 12.0823 56.7875 12.1167 55.9797C16.3792 54.0719 20.8995 52.3359 25.5745 50.7891C28.2902 52.0609 31.298 53.5563 34.4948 55.2578C26.4683 57.4922 19.1808 60.1906 12.3573 63.4391C12.1683 61.7719 12.048 60.0875 12.048 58.3687V58.4031ZM12.9073 66.9969C20.762 63.1641 29.2698 60.1047 38.8433 57.6641C40.1152 58.3859 41.4214 59.1422 42.7448 59.9156L39.6167 63.0438C38.9808 63.6797 38.3792 64.35 37.7948 65.0203C37.7948 65.0203 37.7605 65.0203 37.7433 65.0203C29.3386 67.3406 21.8448 70.2109 14.8495 73.7172C14.0245 71.5516 13.3542 69.3 12.873 66.9797L12.9073 66.9969ZM44.498 67.9078C42.0573 70.3484 39.2042 72.3594 36.1105 73.8719C37.623 70.7609 39.6339 67.9078 42.0745 65.4844L45.8042 61.7547C46.7839 62.3563 47.7808 62.9922 48.7948 63.6281L44.5152 67.9078H44.498ZM51.7167 65.5531C54.2777 67.2547 56.8902 69.0594 59.537 71.0016C53.1089 71.9984 47.0933 73.2359 41.4558 74.7484C43.4152 73.4594 45.2542 71.9984 46.9214 70.3312L51.7167 65.5359V65.5531ZM19.6964 82.8438C18.3902 80.9703 17.2214 78.9766 16.2245 76.8969C21.8964 74.0438 27.9292 71.6547 34.512 69.6094C33.2058 71.775 32.1402 74.0609 31.3323 76.45C31.1777 76.9312 31.2292 77.4297 31.4698 77.8422C27.3105 79.3203 23.3917 80.9875 19.6792 82.8266L19.6964 82.8438ZM26.8808 90.8359C25.0589 89.2547 23.3573 87.5188 21.8105 85.6453C33.3605 80.0078 46.9558 76.1234 63.387 73.8719C65.8792 75.7797 68.3886 77.7906 70.898 79.9219C53.3152 81.7609 38.8605 85.3531 26.8808 90.8359ZM54.9995 101.355C50.6683 101.355 46.4917 100.702 42.5558 99.5156C53.0745 96.1297 65.8276 93.9125 80.5917 92.8813C73.4417 98.1922 64.5902 101.355 54.9995 101.355ZM37.4683 97.6078C34.8042 96.4047 32.2777 94.9609 29.9402 93.2594C41.9886 88.0172 56.5636 84.6313 74.4558 82.9984C76.7589 85.0266 79.0448 87.1578 81.3308 89.375C63.7823 90.5094 49.3448 93.1906 37.4683 97.5906V97.6078ZM85.4558 88.6531C56.9761 60.2422 26.1589 46.8187 15.0558 42.625C15.9152 40.4766 16.9292 38.4141 18.098 36.4547C29.098 40.6656 60.8605 54.5531 89.9245 83.4281C88.5839 85.3016 87.0886 87.0719 85.473 88.7047L85.4558 88.6531ZM91.8323 80.4547C63.0605 52.0953 31.762 38.0875 20.023 33.5156C21.4323 31.5391 23.0136 29.6828 24.7323 27.9641C37.3136 33.0688 67.0823 47.025 95.0292 73.9922C94.1527 76.2609 93.087 78.4438 91.8323 80.5063V80.4547ZM96.2323 70.3484C69.2995 44.7734 40.9058 30.9719 27.5511 25.4031C29.6136 23.6844 31.848 22.1547 34.2198 20.8484C47.712 26.8469 73.1323 39.9437 97.7792 62.4594C97.5214 65.1922 97.0058 67.8563 96.2667 70.4172L96.2323 70.3484ZM97.9339 57.9391C95.2698 55.55 92.5886 53.2812 89.9245 51.1156C92.348 51.0469 94.8058 50.9953 97.2808 50.9781C97.6761 53.2469 97.8995 55.5844 97.9167 57.9563L97.9339 57.9391ZM96.5589 47.5406C93.0183 47.575 89.512 47.6609 86.1089 47.7984C86.023 47.7984 85.937 47.85 85.8511 47.8672C82.9464 45.5984 80.0589 43.4672 77.2058 41.4391C82.6542 41.0609 88.3089 40.8203 94.1183 40.7172C95.1151 42.9 95.9401 45.2031 96.5417 47.5578L96.5589 47.5406ZM92.3995 37.2969C87.9651 37.4 83.6167 37.5719 79.3886 37.8297L87.2089 30.0094C89.1855 32.2437 90.9214 34.7016 92.3995 37.2969ZM74.1636 38.1906C73.6823 38.225 73.2011 38.2594 72.7198 38.2938C72.0152 37.8125 71.3105 37.3484 70.6058 36.8844L92.0558 15.4344C92.348 15.9328 92.6745 16.3969 93.1042 16.8266C93.5167 17.2391 93.998 17.5828 94.4964 17.875L74.1808 38.1906H74.1636ZM95.5277 14.4031C94.8745 13.75 94.5136 12.8906 94.5136 11.9797C94.5136 11.0687 94.8745 10.1922 95.5277 9.55625C96.1808 8.92031 97.0402 8.54219 97.9511 8.54219C98.862 8.54219 99.7386 8.90312 100.375 9.55625C101.01 10.2094 101.389 11.0687 101.389 11.9797C101.389 12.8906 101.028 13.7672 100.375 14.4031C99.0683 15.7094 96.8167 15.7094 95.5105 14.4031H95.5277Z" fill="#0590DA"/>
</svg>
