<svg width="110" height="110" viewBox="0 0 110 110" fill="none" xmlns="http://www.w3.org/2000/svg">
<path d="M69.2912 32.0012H47.9985C47.6146 32.0012 47.2461 32.1541 46.9744 32.4247L39.6836 39.7155C39.4119 39.9872 39.259 40.3557 39.259 40.7396V76.5512C39.259 77.3509 39.9069 77.9988 40.7066 77.9988H69.2901C70.0898 77.9988 70.7377 77.3509 70.7377 76.5512V33.4488C70.7377 32.6491 70.0909 32.0012 69.2912 32.0012ZM67.8436 66.3432L59.0832 75.1036H55.3509L67.8436 62.6109V66.3432ZM67.8436 58.5167L51.2567 75.1036H47.5244L67.8436 54.7844V58.5167ZM42.1564 49.1656L53.1168 38.2052V41.9375L42.1564 52.8979V49.1656ZM42.1564 56.9921L55.1639 43.9846H58.8962L42.1564 60.7244V56.9921ZM42.1564 64.8186L62.9904 43.9846H66.7227L42.1564 68.5509V64.8186ZM67.8436 41.0894H56.012V35.31L56.4245 34.8975H67.8436V41.0894ZM48.5991 34.8964H52.3314L42.1564 45.0714V41.3391L48.5991 34.8964ZM42.1564 72.6451L67.8436 46.9579V50.6902L43.4302 75.1036H42.1564V72.6451ZM63.1785 75.1036L67.8447 70.4374V75.1036H63.1785ZM102.38 61.3668C100.272 61.3668 98.4819 62.7506 97.8681 64.658H91.8951L88.4466 60.6595C88.1716 60.3405 87.7712 60.1568 87.3499 60.1568H77.3575V56.4476H89.3233L92.7729 60.4461C93.0589 60.7783 93.4637 60.9477 93.8696 60.9477C94.204 60.9477 94.5417 60.8322 94.8145 60.5968C95.4195 60.0743 95.4877 59.1602 94.9652 58.5552L91.0833 54.054C90.8083 53.735 90.4079 53.5524 89.9866 53.5524H77.3575V49.8432H87.3499C87.7712 49.8432 88.1716 49.6595 88.4466 49.3416L91.8951 45.3431H97.8681C98.4819 47.2505 100.272 48.6343 102.38 48.6343C104.994 48.6343 107.119 46.508 107.119 43.8955C107.119 41.283 104.993 39.1567 102.38 39.1567C100.272 39.1567 98.4819 40.5405 97.8681 42.4479H91.2329C90.8116 42.4479 90.4112 42.6316 90.1362 42.9495L86.6877 46.948H77.3586V43.2388H83.9322C84.7319 43.2388 85.3798 42.5909 85.3798 41.7912C85.3798 40.9915 84.7319 40.3436 83.9322 40.3436H77.3586V36.6344H92.1085C92.9082 36.6344 93.5561 35.9865 93.5561 35.1868V24.2473C96.0806 23.6016 97.9528 21.307 97.9528 18.5845C97.9528 15.3615 95.3304 12.7402 92.1085 12.7402C88.8866 12.7402 86.2631 15.3626 86.2631 18.5845C86.2631 21.3081 88.1353 23.6016 90.6598 24.2473V33.7381H77.3575V28.9586C77.3575 26.9874 75.7537 25.3836 73.7825 25.3836H56.4476V14.3891C58.9721 13.7434 60.8443 11.4488 60.8443 8.72626C60.8443 5.50326 58.2219 2.88086 54.9989 2.88086C51.7759 2.88086 49.1546 5.50326 49.1546 8.72626C49.1546 11.4499 51.0268 13.7434 53.5513 14.3891V25.3836H47.1482C45.4949 25.3836 44.0649 25.9765 42.8956 27.1458L36.3033 33.7381H19.3402V24.2473C21.8647 23.6016 23.7369 21.307 23.7369 18.5845C23.7369 15.3615 21.1145 12.7402 17.8926 12.7402C14.6707 12.7402 12.0483 15.3626 12.0483 18.5845C12.0483 21.3081 13.9205 23.6016 16.445 24.2473V35.1868C16.445 35.9865 17.0929 36.6344 17.8926 36.6344H33.5907C32.9615 37.5903 32.6425 38.6815 32.6425 39.8915V40.3436H26.0689C25.2692 40.3436 24.6213 40.9915 24.6213 41.7912C24.6213 42.5909 25.2692 43.2388 26.0689 43.2388H32.6425V46.948H23.3134L19.8638 42.9495C19.5888 42.6305 19.1884 42.4479 18.7671 42.4479H12.1319C11.5181 40.5405 9.72836 39.1567 7.61966 39.1567C5.00606 39.1567 2.88086 41.283 2.88086 43.8955C2.88086 46.508 5.00716 48.6343 7.61966 48.6343C9.72836 48.6343 11.5181 47.2505 12.1319 45.3431H18.1049L21.5545 49.3416C21.8295 49.6606 22.2299 49.8432 22.6512 49.8432H32.6436V53.5524H20.0145C19.5932 53.5524 19.1928 53.7361 18.9178 54.054L15.0359 58.5552C14.5134 59.1602 14.5816 60.0754 15.1866 60.5968C15.4605 60.8322 15.7971 60.9477 16.1315 60.9477C16.5374 60.9477 16.9422 60.7772 17.2282 60.4461L20.6778 56.4476H32.6436V60.1568H22.6512C22.2299 60.1568 21.8295 60.3405 21.5545 60.6584L18.1049 64.658H12.1319C11.5181 62.7506 9.72836 61.3668 7.61966 61.3668C5.00606 61.3668 2.88086 63.4931 2.88086 66.1056C2.88086 68.7181 5.00716 70.8444 7.61966 70.8444C9.72836 70.8444 11.5181 69.4606 12.1319 67.5532H18.7671C19.1884 67.5532 19.5888 67.3695 19.8638 67.0516L23.3134 63.052H32.6425V66.7612H26.0689C25.2692 66.7612 24.6213 67.4091 24.6213 68.2088C24.6213 69.0085 25.2692 69.6564 26.0689 69.6564H32.6425V73.3656H17.8926C17.0929 73.3656 16.445 74.0135 16.445 74.8132V85.7516C13.9205 86.3973 12.0483 88.6919 12.0483 91.4144C12.0483 94.6374 14.6707 97.2598 17.8926 97.2598C21.1145 97.2598 23.7369 94.6374 23.7369 91.4144C23.7369 88.6908 21.8647 86.3973 19.3402 85.7516V76.2608H32.6425V81.0403C32.6425 83.0115 34.2463 84.6153 36.2175 84.6153H53.5524V95.6098C51.0279 96.2555 49.1557 98.5501 49.1557 101.273C49.1557 104.496 51.7781 107.117 55 107.117C58.2219 107.117 60.8454 104.494 60.8454 101.273C60.8454 98.549 58.9732 96.2555 56.4487 95.6098V84.6153H73.7836C75.7548 84.6153 77.3586 83.0115 77.3586 81.0403V76.2608H90.6609V85.7516C88.1364 86.3973 86.2642 88.6919 86.2642 91.4144C86.2642 94.6374 88.8866 97.2598 92.1096 97.2598C95.3326 97.2598 97.9539 94.6374 97.9539 91.4144C97.9539 88.6908 96.0817 86.3973 93.5572 85.7516V74.8132C93.5572 74.0135 92.9093 73.3656 92.1096 73.3656H77.3597V69.6564H83.9333C84.733 69.6564 85.3809 69.0085 85.3809 68.2088C85.3809 67.4091 84.733 66.7612 83.9333 66.7612H77.3597V63.052H86.6888L90.1373 67.0505C90.4123 67.3695 90.8127 67.5532 91.234 67.5532H97.8692C98.483 69.4606 100.273 70.8444 102.381 70.8444C104.995 70.8444 107.12 68.7181 107.12 66.1056C107.12 63.4931 104.993 61.3668 102.38 61.3668ZM102.38 42.0497C103.397 42.0497 104.224 42.8769 104.224 43.8933C104.224 44.9097 103.397 45.7369 102.38 45.7369C101.364 45.7369 100.537 44.9097 100.537 43.8933C100.537 42.8769 101.364 42.0497 102.38 42.0497ZM89.1583 18.5823C89.1583 16.9565 90.4816 15.6332 92.1074 15.6332C93.7332 15.6332 95.0565 16.9565 95.0565 18.5823C95.0565 20.2081 93.7332 21.5314 92.1074 21.5314C90.4816 21.5314 89.1583 20.2081 89.1583 18.5823ZM52.0509 8.72626C52.0509 7.10046 53.3742 5.77716 55 5.77716C56.6258 5.77716 57.9491 7.10046 57.9491 8.72626C57.9491 10.3521 56.6258 11.6754 55 11.6754C53.3742 11.6754 52.0509 10.3521 52.0509 8.72626ZM14.9435 18.5834C14.9435 16.9576 16.2668 15.6343 17.8926 15.6343C19.5184 15.6343 20.8417 16.9576 20.8417 18.5834C20.8417 20.2092 19.5184 21.5325 17.8926 21.5325C16.2668 21.5325 14.9435 20.2092 14.9435 18.5834ZM7.61966 45.738C6.60326 45.738 5.77606 44.9108 5.77606 43.8944C5.77606 42.878 6.60326 42.0508 7.61966 42.0508C8.63606 42.0508 9.46326 42.878 9.46326 43.8944C9.46326 44.9108 8.63606 45.738 7.61966 45.738ZM7.61966 67.9503C6.60326 67.9503 5.77606 67.1231 5.77606 66.1067C5.77606 65.0903 6.60326 64.2631 7.61966 64.2631C8.63606 64.2631 9.46326 65.0903 9.46326 66.1067C9.46326 67.1231 8.63606 67.9503 7.61966 67.9503ZM20.8417 91.4177C20.8417 93.0435 19.5184 94.3668 17.8926 94.3668C16.2668 94.3668 14.9435 93.0435 14.9435 91.4177C14.9435 89.7919 16.2668 88.4686 17.8926 88.4686C19.5184 88.4686 20.8417 89.7919 20.8417 91.4177ZM57.9491 101.275C57.9491 102.901 56.6258 104.224 55 104.224C53.3742 104.224 52.0509 102.901 52.0509 101.275C52.0509 99.649 53.3742 98.3257 55 98.3257C56.6258 98.3257 57.9491 99.649 57.9491 101.275ZM95.0565 91.4177C95.0565 93.0435 93.7332 94.3668 92.1074 94.3668C90.4816 94.3668 89.1583 93.0435 89.1583 91.4177C89.1583 89.7919 90.4816 88.4686 92.1074 88.4686C93.7332 88.4686 95.0565 89.7919 95.0565 91.4177ZM74.4612 81.0425C74.4612 81.411 74.1499 81.7223 73.7814 81.7223H36.2175C35.849 81.7223 35.5377 81.411 35.5377 81.0425V39.8904C35.5377 39.0214 35.8369 38.2998 36.4507 37.6849L44.9427 29.1929C45.5576 28.578 46.2792 28.2799 47.1482 28.2799H73.7814C74.1499 28.2799 74.4612 28.5912 74.4612 28.9597V81.0425ZM102.379 67.9503C101.363 67.9503 100.536 67.1231 100.536 66.1067C100.536 65.0903 101.363 64.2631 102.379 64.2631C103.396 64.2631 104.223 65.0903 104.223 66.1067C104.223 67.1231 103.396 67.9503 102.379 67.9503Z" fill="#0590DA"/>
</svg>
