<svg width="110" height="110" viewBox="0 0 110 110" fill="none" xmlns="http://www.w3.org/2000/svg">
<g clip-path="url(#clip0_123_1599)">
<path d="M100.926 82.7745C100.926 82.4995 100.788 82.362 100.651 82.2245C100.513 80.162 100.101 78.0995 98.7255 76.1745C95.013 70.9495 87.313 67.237 78.1005 66.412C76.588 66.2745 75.0755 66.2745 73.563 66.2745L86.763 38.4995C88.5505 34.787 89.3755 31.0745 89.3755 27.087C89.3755 16.4995 83.3255 6.87448 73.838 2.47448C60.5005 -3.71302 44.413 1.92448 38.088 15.262L24.888 43.312C24.888 43.312 24.888 43.312 24.7505 43.312V43.4495L11.5505 71.4995C8.52552 77.962 8.11302 85.2495 10.588 91.987C13.063 98.7245 17.8755 104.224 24.338 107.249C28.0505 109.037 31.9005 109.862 35.888 109.862C42.0755 109.862 48.1255 107.662 53.0755 103.537C57.2005 106.699 62.9755 109.037 69.988 109.724C71.363 109.862 72.738 109.862 74.113 109.862C87.1755 109.862 98.4505 104.224 100.513 95.9745C100.788 95.012 101.063 94.0495 101.063 93.2245C101.063 93.087 100.926 93.087 100.926 93.087C100.926 92.9495 101.063 92.9495 101.063 92.9495V82.7745H100.926ZM95.4255 78.3745C96.8005 80.2995 97.213 82.362 96.663 84.4245C94.738 91.2995 82.7755 96.2495 70.4005 95.012C66.963 94.737 63.663 93.912 60.913 92.6745L91.5755 74.662C93.088 75.8995 94.6005 77.137 95.4255 78.3745ZM87.313 72.5995L56.6505 90.612C55.0005 89.512 53.6255 88.412 52.663 87.037C51.288 85.112 50.8755 83.0495 51.4255 80.987C53.3505 74.112 65.313 69.162 77.688 70.3995C81.263 70.6745 84.4255 71.4995 87.313 72.5995ZM41.8005 17.0495C47.163 5.77448 60.7755 0.824476 72.188 6.18698C80.3005 9.89948 85.388 18.1495 85.388 27.087C85.388 30.387 84.563 33.687 83.188 36.712L70.813 62.9745L29.4255 43.312L41.8005 17.0495ZM26.1255 103.674C20.6255 101.062 16.5005 96.5245 14.438 90.7495C12.3755 84.9745 12.6505 78.787 15.263 73.287L27.638 47.0245L68.888 66.412C58.0255 67.787 49.5005 72.8745 47.5755 79.887C47.438 80.5745 47.5755 81.262 47.438 81.9495C47.3005 82.2245 47.163 82.362 47.163 82.637V92.6745C47.163 92.812 47.3005 92.812 47.3005 92.9495C47.3005 93.087 47.163 93.087 47.163 93.2245C47.163 95.837 48.4005 98.312 50.188 100.512C43.4505 106.149 33.963 107.524 26.1255 103.674ZM96.5255 95.1495C94.738 102.024 82.638 106.837 70.263 105.737C59.4005 104.774 51.1505 99.412 51.1505 93.362C51.1505 93.2245 51.013 93.2245 51.013 93.087C51.013 92.9495 51.1505 92.9495 51.1505 92.812V91.2995C55.2755 95.4245 61.8755 98.312 69.988 99.137C71.363 99.2745 72.738 99.2745 74.113 99.2745C83.6005 99.2745 92.1255 96.2495 96.938 91.437V92.9495C96.938 93.087 97.0755 93.087 97.0755 93.087C97.0755 93.2245 96.938 93.2245 96.938 93.2245C96.938 93.7745 96.663 94.737 96.5255 95.1495Z" fill="#0590DA"/>
<path d="M38.5007 35.0624C38.7757 35.1999 39.0507 35.1999 39.3257 35.1999C40.1507 35.1999 40.8382 34.7874 41.1132 34.0999L46.8882 21.7249C48.9507 17.3249 52.3882 14.0249 57.0632 12.0999C58.0257 11.6874 58.5757 10.4499 58.1632 9.48737C57.7507 8.38737 56.5132 7.97487 55.5507 8.38737C50.1882 10.7249 45.7882 14.8499 43.3132 20.0749L37.5382 32.4499C37.1257 33.2749 37.5382 34.5124 38.5007 35.0624Z" fill="#0590DA"/>
</g>
<defs>
<clipPath id="clip0_123_1599">
<rect width="110" height="110" fill="white"/>
</clipPath>
</defs>
</svg>
