<svg width="110" height="110" viewBox="0 0 110 110" fill="none" xmlns="http://www.w3.org/2000/svg">
<path d="M99.422 21.1535H69.8066V4.23047H99.422V21.1535ZM74.0374 16.9228H95.1913V8.46124H74.0374V16.9228Z" fill="#0590DA"/>
<path d="M93.0765 11.6348H88.8457V19.0386H93.0765V11.6348Z" fill="#0590DA"/>
<path d="M80.3831 11.6348H76.1523V19.0386H80.3831V11.6348Z" fill="#0590DA"/>
<path d="M99.4225 44.4219H69.8071C66.3076 44.4219 63.4609 41.5752 63.4609 38.0757V16.9219H105.769V38.0757C105.769 41.5752 102.922 44.4219 99.4225 44.4219ZM67.6917 21.1526V38.0757C67.6917 39.2419 68.6399 40.1911 69.8071 40.1911H99.4225C100.59 40.1911 101.538 39.2419 101.538 38.0757V21.1526H67.6917Z" fill="#0590DA"/>
<path d="M26.0878 72.9798H7.75586V61.2832H26.0878V72.9798ZM11.9866 68.749H21.857V65.514H11.9866V68.749Z" fill="#0590DA"/>
<path d="M29.6151 65.5145H4.23047V53.9419C4.23047 50.4424 7.07715 47.5957 10.5766 47.5957H23.2689C26.7684 47.5957 29.6151 50.4424 29.6151 53.9419V65.5145ZM8.46124 61.2837H25.3843V53.9419C25.3843 52.7757 24.4361 51.8265 23.2689 51.8265H10.5766C9.40944 51.8265 8.46124 52.7757 8.46124 53.9419V61.2837Z" fill="#0590DA"/>
<path d="M65.5759 105.769C53.9123 105.769 44.422 96.2797 44.422 84.6151V48.6535C44.422 41.6546 38.7287 35.9612 31.7297 35.9612C24.7308 35.9612 19.0374 41.6546 19.0374 48.6535V49.7112H14.8066V48.6535C14.8066 39.3223 22.3985 31.7305 31.7297 31.7305C41.061 31.7305 48.6528 39.3223 48.6528 48.6535V84.6151C48.6528 93.9463 56.2446 101.538 65.5759 101.538C74.9071 101.538 82.499 93.9463 82.499 84.6151V42.3074H86.7297V84.6151C86.7297 96.2797 77.2394 105.769 65.5759 105.769Z" fill="#0590DA"/>
</svg>
