<svg width="110" height="110" viewBox="0 0 110 110" fill="none" xmlns="http://www.w3.org/2000/svg">
<g clip-path="url(#clip0_123_1629)">
<path d="M27.3343 36.728L21.7382 33.4201C21.5707 33.8887 21.3662 34.3433 21.1268 34.7796C20.8066 35.3519 20.4283 35.8896 19.998 36.3844L25.5774 39.6825C25.2115 40.6793 25.0232 41.7325 25.0208 42.7943C25.0311 44.9598 25.801 47.053 27.1963 48.7092C28.5916 50.3653 30.5238 51.4792 32.6562 51.8569V58.1054C30.5238 58.4833 28.5915 59.5975 27.1963 61.2538C25.801 62.91 25.0311 65.0033 25.0208 67.169C25.023 68.2092 25.2037 69.2413 25.5551 70.2204L20.321 73.3144C20.5112 73.5845 20.6874 73.8641 20.849 74.1522C21.2509 74.8785 21.555 75.6547 21.7533 76.4607L27.2905 73.1875C28.1696 74.198 29.2564 75.007 30.4766 75.5593C31.6969 76.1116 33.0219 76.3942 34.3613 76.3878C35.7006 76.3815 37.0229 76.0864 38.2379 75.5225C39.4528 74.9587 40.5319 74.1395 41.4014 73.1207L46.5445 76.1208C46.1484 77.1537 45.9443 78.2501 45.9421 79.3563C45.9516 81.4282 46.657 83.4368 47.945 85.0597C49.233 86.6826 51.029 87.8257 53.0445 88.3055V94.6449C54.1873 94.4616 55.3547 94.502 56.482 94.7638V88.4826C58.7004 88.1918 60.7383 87.107 62.2182 85.429C63.6981 83.7511 64.5198 81.5936 64.5311 79.3563C64.5307 78.1684 64.2975 76.992 63.8448 75.8937L68.917 72.935C69.7236 73.9315 70.7273 74.7507 71.8653 75.3413C73.0033 75.9318 74.2509 76.281 75.5301 76.367C76.8093 76.4529 78.0925 76.2738 79.2992 75.8408C80.5059 75.4078 81.6103 74.7302 82.543 73.8506L87.5827 76.6767C87.8977 75.5629 88.4256 74.5206 89.1372 73.6076L84.5767 71.0502C85.1517 69.837 85.4508 68.5115 85.4524 67.1689C85.441 64.9211 84.6118 62.7543 83.1196 61.0731C81.6274 59.392 79.5743 58.3116 77.3437 58.0336V51.9287C79.5742 51.651 81.6274 50.5707 83.1196 48.8897C84.6118 47.2088 85.441 45.042 85.4523 42.7943C85.4501 41.7505 85.2681 40.715 84.9144 39.7331L89.9438 36.913C89.5068 36.4421 89.1196 35.9274 88.7883 35.3771C88.5309 34.9336 88.3099 34.4699 88.1273 33.9908L83.1751 36.7675C82.2802 35.7413 81.1712 34.9237 79.9261 34.3725C78.681 33.8213 77.3302 33.5498 75.9688 33.5772C74.6074 33.6046 73.2686 33.9302 72.0467 34.5311C70.8248 35.132 69.7495 35.9936 68.8967 37.055L63.8328 34.1011C64.2937 32.9935 64.531 31.8057 64.5311 30.6061C64.5211 28.4507 63.7586 26.3665 62.3754 24.7135C60.9922 23.0605 59.0751 21.9424 56.9553 21.5525V15.2637C55.825 15.5091 54.6581 15.5355 53.5178 15.3417V21.5525C51.398 21.9424 49.481 23.0605 48.0978 24.7135C46.7146 26.3665 45.9521 28.4507 45.9421 30.6061C45.9442 31.7239 46.1524 32.8317 46.5564 33.8739L41.4244 36.8676C40.5602 35.8478 39.4865 35.0259 38.2764 34.4579C37.0663 33.8898 35.7481 33.589 34.4113 33.5757C33.0746 33.5625 31.7506 33.8371 30.5295 34.3811C29.3083 34.925 28.2186 35.7254 27.3343 36.728ZM34.3153 72.9504C33.175 72.9356 32.0646 72.584 31.1237 71.9397C30.1828 71.2954 29.4534 70.3873 29.0272 69.3295C28.6011 68.2718 28.4973 67.1116 28.7288 65.995C28.9604 64.8784 29.5169 63.8551 30.3285 63.054C31.1401 62.2529 32.1704 61.7097 33.29 61.4927C34.4095 61.2756 35.5682 61.3945 36.6203 61.8343C37.6725 62.2741 38.5711 63.0153 39.2031 63.9645C39.8351 64.9137 40.1723 66.0286 40.1723 67.169C40.1605 68.7118 39.5373 70.1869 38.4392 71.2707C37.3412 72.3546 35.8581 72.9587 34.3153 72.9504ZM55.2366 85.1378C54.0963 85.123 52.9859 84.7713 52.0449 84.127C51.104 83.4828 50.3746 82.5746 49.9485 81.5169C49.5224 80.4591 49.4185 79.2989 49.6501 78.1823C49.8816 77.0657 50.4382 76.0425 51.2498 75.2414C52.0613 74.4403 53.0917 73.897 54.2112 73.68C55.3308 73.463 56.4895 73.5818 57.5416 74.0217C58.5937 74.4615 59.4923 75.2026 60.1244 76.1518C60.7564 77.101 61.0936 78.2159 61.0936 79.3563C61.0818 80.8991 60.4585 82.3742 59.3605 83.4581C58.2625 84.5419 56.7794 85.146 55.2366 85.1378ZM82.0148 67.169C82.0299 68.3306 81.6992 69.4705 81.0648 70.4437C80.4304 71.4169 79.5209 72.1795 78.452 72.6345C77.383 73.0895 76.2029 73.2164 75.0617 72.999C73.9205 72.7816 72.8697 72.2298 72.0429 71.4136C71.2161 70.5975 70.6507 69.554 70.4185 68.4157C70.1863 67.2774 70.2979 66.0957 70.739 65.021C71.1801 63.9462 71.9308 63.0269 72.8957 62.3799C73.8606 61.7329 74.9961 61.3875 76.1578 61.3875C77.7006 61.3792 79.1837 61.9833 80.2818 63.0672C81.3798 64.151 82.003 65.6262 82.0148 67.169ZM76.1578 37.0128C77.298 37.0277 78.4083 37.3794 79.3491 38.0236C80.2899 38.6679 81.0191 39.576 81.4452 40.6336C81.8712 41.6913 81.975 42.8513 81.7435 43.9678C81.5119 45.0843 80.9554 46.1074 80.1439 46.9084C79.3324 47.7095 78.3022 48.2527 77.1828 48.4697C76.0634 48.6867 74.9048 48.5679 73.8527 48.1282C72.8007 47.6884 71.9022 46.9474 71.2702 45.9984C70.6382 45.0493 70.3009 43.9345 70.3008 42.7943C70.3126 41.2515 70.9359 39.7763 72.0339 38.6925C73.1319 37.6086 74.615 37.0046 76.1578 37.0128ZM55.2366 24.8254C56.3768 24.8403 57.4871 25.192 58.4279 25.8363C59.3687 26.4806 60.098 27.3887 60.524 28.4465C60.9501 29.5042 61.0538 30.6642 60.8222 31.7808C60.5906 32.8973 60.034 33.9204 59.2224 34.7214C58.4108 35.5224 57.3805 36.0655 56.2611 36.2824C55.1416 36.4994 53.983 36.3804 52.9309 35.9406C51.8789 35.5007 50.9804 34.7596 50.3485 33.8104C49.7166 32.8612 49.3795 31.7464 49.3796 30.6061C49.3916 29.0634 50.0149 27.5885 51.1129 26.5048C52.2109 25.4211 53.6939 24.8172 55.2366 24.8254ZM48.369 36.7961C49.2268 37.7352 50.268 38.4883 51.4284 39.0092C52.5887 39.53 53.8435 39.8074 55.1152 39.8242C56.387 39.8411 57.6487 39.5971 58.8224 39.1072C59.9961 38.6173 61.0569 37.892 61.9394 36.9761L67.2736 40.0877C67.0014 40.9641 66.8631 41.8766 66.8634 42.7943C66.8728 44.8554 67.5712 46.8543 68.8473 48.473C70.1234 50.0916 71.9041 51.2372 73.9062 51.7274V58.235C71.9041 58.7254 70.1234 59.8711 68.8472 61.4899C67.5711 63.1087 66.8728 65.1077 66.8633 67.169C66.8626 68.0983 67.004 69.0223 67.2825 69.909L61.9629 73.012C61.08 72.0884 60.0163 71.3566 58.8381 70.8622C57.66 70.3677 56.3926 70.1213 55.115 70.1381C53.8374 70.155 52.577 70.4349 51.4123 70.9603C50.2476 71.4856 49.2036 72.2453 48.3454 73.1919L43.1067 70.1361C43.438 69.1818 43.6081 68.1791 43.6098 67.169C43.6001 65.0236 42.8451 62.9483 41.474 61.2982C40.1029 59.6482 38.201 58.5259 36.0937 58.1235V51.8388C38.2009 51.4367 40.1029 50.3146 41.474 48.6647C42.8451 47.0147 43.6001 44.9395 43.6098 42.7943C43.6083 41.7955 43.4423 40.8037 43.1185 39.8589L48.369 36.7961ZM34.3153 37.0128C35.4555 37.0277 36.5658 37.3794 37.5066 38.0236C38.4474 38.6679 39.1766 39.576 39.6027 40.6336C40.0287 41.6913 40.1325 42.8513 39.901 43.9678C39.6694 45.0843 39.1129 46.1074 38.3014 46.9084C37.4899 47.7095 36.4597 48.2527 35.3403 48.4697C34.2209 48.6867 33.0623 48.5679 32.0102 48.1282C30.9582 47.6884 30.0597 46.9474 29.4277 45.9984C28.7957 45.0493 28.4584 43.9345 28.4583 42.7943C28.4701 41.2515 29.0934 39.7763 30.1914 38.6925C31.2894 37.6086 32.7725 37.0046 34.3153 37.0128Z" fill="#0590DA"/>
<path d="M48.9844 6.01562C48.9844 7.2054 49.3372 8.36846 49.9982 9.35773C50.6592 10.347 51.5987 11.118 52.6979 11.5733C53.7971 12.0286 55.0067 12.1478 56.1736 11.9157C57.3405 11.6835 58.4124 11.1106 59.2537 10.2693C60.095 9.42801 60.6679 8.35613 60.9 7.18922C61.1321 6.0223 61.013 4.81276 60.5577 3.71355C60.1024 2.61433 59.3314 1.67482 58.3421 1.01382C57.3528 0.35281 56.1898 0 55 0C53.4051 0.00193082 51.8762 0.636338 50.7484 1.76407C49.6207 2.8918 48.9863 4.42077 48.9844 6.01562ZM57.5781 6.01562C57.5781 6.52553 57.4269 7.02398 57.1436 7.44795C56.8603 7.87193 56.4577 8.20237 55.9866 8.3975C55.5155 8.59263 54.9971 8.64369 54.497 8.54421C53.9969 8.44473 53.5375 8.19919 53.177 7.83863C52.8164 7.47808 52.5709 7.0187 52.4714 6.51859C52.3719 6.01848 52.423 5.50011 52.6181 5.02902C52.8133 4.55793 53.1437 4.15528 53.5677 3.87199C53.9916 3.5887 54.4901 3.4375 55 3.4375C55.6835 3.43825 56.3389 3.71011 56.8222 4.19344C57.3055 4.67677 57.5774 5.33209 57.5781 6.01562Z" fill="#0590DA"/>
<path d="M10.0669 35.313C10.7273 35.7114 11.4616 35.972 12.2254 36.0792C12.9893 36.1864 13.7669 36.1379 14.5115 35.9366C15.2737 35.7323 15.9867 35.3759 16.6076 34.8888C17.2285 34.4018 17.7444 33.7941 18.1244 33.1025C18.8908 31.7256 19.096 30.106 18.6973 28.5815C18.2986 27.057 17.3267 25.7453 15.9843 24.9199C15.324 24.5211 14.5898 24.2602 13.8259 24.153C13.062 24.0458 12.2843 24.0946 11.5397 24.2964C10.7775 24.5007 10.0645 24.8571 9.44363 25.3442C8.82274 25.8312 8.3068 26.4388 7.92684 27.1305C7.15997 28.5072 6.95447 30.127 7.35322 31.6516C7.75197 33.1763 8.72416 34.488 10.0669 35.313ZM10.928 28.8056C11.085 28.5165 11.2988 28.2622 11.5567 28.058C11.8146 27.8538 12.1112 27.7038 12.4285 27.6173C12.6239 27.5643 12.8253 27.5375 13.0277 27.5375C13.4486 27.5387 13.8613 27.6538 14.222 27.8707C14.8014 28.2334 15.2185 28.8056 15.3864 29.4682C15.5543 30.1308 15.4601 30.8326 15.1233 31.4274C14.9663 31.7165 14.7524 31.9708 14.4946 32.175C14.2367 32.3793 13.9401 32.5292 13.6228 32.6157C13.3222 32.6965 13.0083 32.7157 12.7002 32.6721C12.392 32.6286 12.0958 32.5232 11.8293 32.3623C11.2499 31.9997 10.8328 31.4274 10.6648 30.7649C10.4969 30.1023 10.5912 29.4004 10.928 28.8056Z" fill="#0590DA"/>
<path d="M7.65136 81.7995C8.03131 82.4912 8.54725 83.0988 9.16814 83.5858C9.78903 84.0729 10.502 84.4293 11.2643 84.6336C12.0088 84.8349 12.7865 84.8834 13.5503 84.7762C14.3141 84.6691 15.0484 84.4084 15.7088 84.0101C17.0517 83.1849 18.0239 81.873 18.4226 80.3482C18.8214 78.8234 18.6158 77.2036 17.8489 75.8267C17.4687 75.1352 16.9526 74.5277 16.3315 74.0408C15.7105 73.5539 14.9974 73.1976 14.2351 72.9934C13.4907 72.7918 12.7132 72.7431 11.9494 72.8503C11.1857 72.9575 10.4516 73.2183 9.7914 73.617C8.44873 74.4421 7.47658 75.7538 7.07784 77.2784C6.67909 78.803 6.88456 80.4228 7.65136 81.7995ZM11.5538 76.5677C11.8199 76.4064 12.116 76.3008 12.4241 76.2572C12.7322 76.2137 13.046 76.2331 13.3464 76.3143C13.6638 76.4009 13.9605 76.5508 14.2185 76.755C14.4765 76.9592 14.6906 77.2136 14.8478 77.5026C15.1847 78.0973 15.279 78.799 15.1111 79.4616C14.9432 80.1241 14.5259 80.6961 13.9464 81.0585C13.6802 81.2198 13.3839 81.3262 13.0757 81.3698C12.7674 81.4134 12.4535 81.394 12.153 81.3128C11.8355 81.2262 11.5389 81.0762 11.281 80.8718C11.0231 80.6674 10.8093 80.4129 10.6524 80.1236C10.3155 79.529 10.2212 78.8272 10.3891 78.1647C10.5571 77.5022 10.9743 76.9301 11.5538 76.5677Z" fill="#0590DA"/>
<path d="M48.4121 103.984C48.4121 105.174 48.7649 106.337 49.4259 107.326C50.0869 108.316 51.0264 109.087 52.1257 109.542C53.2249 109.997 54.4344 110.117 55.6013 109.884C56.7682 109.652 57.8401 109.079 58.6814 108.238C59.5227 107.397 60.0957 106.325 60.3278 105.158C60.5599 103.991 60.4408 102.782 59.9854 101.682C59.5301 100.583 58.7591 99.6436 57.7698 98.9826C56.7806 98.3216 55.6175 97.9688 54.4277 97.9688C52.8329 97.9707 51.3039 98.6051 50.1762 99.7328C49.0484 100.861 48.414 102.39 48.4121 103.984ZM57.0059 103.984C57.0059 104.494 56.8547 104.993 56.5714 105.417C56.2881 105.841 55.8854 106.171 55.4143 106.366C54.9432 106.561 54.4249 106.612 53.9248 106.513C53.4247 106.413 52.9653 106.168 52.6047 105.807C52.2442 105.447 51.9986 104.987 51.8991 104.487C51.7997 103.987 51.8507 103.469 52.0459 102.998C52.241 102.527 52.5714 102.124 52.9954 101.841C53.4194 101.557 53.9178 101.406 54.4277 101.406C55.1113 101.407 55.7666 101.679 56.2499 102.162C56.7333 102.646 57.0051 103.301 57.0059 103.984Z" fill="#0590DA"/>
<path d="M90.836 80.848C91.0423 81.6216 91.4017 82.3458 91.893 82.978C92.3843 83.6101 92.9974 84.1372 93.6961 84.5281C95.0944 85.3173 96.7456 85.5294 98.298 85.1192C99.8503 84.709 101.181 83.7088 102.007 82.3318C102.41 81.6521 102.673 80.8984 102.78 80.1154C102.887 79.3324 102.835 78.5359 102.629 77.7731C102.423 76.9999 102.063 76.2759 101.572 75.6441C101.081 75.0123 100.468 74.4854 99.7696 74.0947C98.3712 73.3052 96.7198 73.093 95.1673 73.5033C93.6147 73.9135 92.2837 74.9138 91.4579 76.291C91.0547 76.9704 90.7919 77.7237 90.6851 78.5065C90.5783 79.2892 90.6296 80.0854 90.836 80.848ZM94.4203 78.0349C94.6591 77.6351 94.998 77.3046 95.4037 77.076C95.8093 76.8474 96.2676 76.7287 96.7333 76.7316C97.204 76.7315 97.6666 76.8535 98.076 77.0857C98.3765 77.2529 98.6404 77.4787 98.852 77.7497C99.0636 78.0207 99.2187 78.3314 99.308 78.6635C99.3952 78.9855 99.4168 79.3218 99.3715 79.6524C99.3262 79.983 99.215 80.3011 99.0445 80.5879C98.6799 81.192 98.0934 81.6296 97.4104 81.8069C96.7274 81.9843 96.0022 81.8874 95.3897 81.537C95.089 81.3696 94.8249 81.1437 94.613 80.8726C94.4011 80.6015 94.2457 80.2906 94.156 79.9584C94.0692 79.6364 94.0478 79.3003 94.0933 78.9699C94.1387 78.6395 94.2499 78.3215 94.4203 78.0349Z" fill="#0590DA"/>
<path d="M97.0396 36.6246C98.0991 36.6257 99.1408 36.3516 100.063 35.829C100.761 35.4381 101.374 34.911 101.865 34.2789C102.356 33.6468 102.716 32.9225 102.922 32.149C103.128 31.3864 103.179 30.5902 103.073 29.8075C102.966 29.0247 102.703 28.2714 102.3 27.592C101.474 26.2147 100.143 25.2143 98.5906 24.804C97.038 24.3938 95.3865 24.6061 93.9882 25.3957C93.2896 25.7866 92.6766 26.3138 92.1855 26.9459C91.6943 27.578 91.335 28.3023 91.1289 29.0758C90.9225 29.8383 90.8713 30.6345 90.9781 31.4173C91.0849 32.2 91.3476 32.9534 91.7507 33.6328C92.2958 34.5485 93.0704 35.3061 93.998 35.8308C94.9255 36.3555 95.9739 36.6292 97.0396 36.6246ZM94.4489 29.9645C94.5388 29.6326 94.6941 29.322 94.9059 29.051C95.1176 28.7801 95.3814 28.5542 95.6817 28.3867C96.2945 28.0369 97.0197 27.9404 97.7026 28.1177C98.3856 28.295 98.9722 28.7322 99.3374 29.3359C99.5079 29.6227 99.6191 29.9408 99.6646 30.2713C99.71 30.6018 99.6886 30.9381 99.6018 31.2603C99.512 31.5922 99.3567 31.9029 99.145 32.1738C98.9332 32.4448 98.6694 32.6707 98.369 32.838C97.7562 33.1879 97.031 33.2844 96.348 33.1071C95.665 32.9298 95.0784 32.4926 94.7133 31.8888C94.5428 31.6021 94.4315 31.284 94.3861 30.9534C94.3407 30.6229 94.3621 30.2866 94.4489 29.9645Z" fill="#0590DA"/>
<path d="M47.3825 52.0766C47.6083 52.0769 47.8319 52.0326 48.0404 51.9462C48.249 51.8597 48.4384 51.733 48.5978 51.5731L52.0353 48.1356C52.3561 47.813 52.536 47.3763 52.5354 46.9213C52.5348 46.4664 52.3537 46.0302 52.032 45.7084C51.7103 45.3867 51.2741 45.2057 50.8191 45.2051C50.3641 45.2045 49.9274 45.3843 49.6048 45.7052L46.1673 49.1427C45.927 49.3831 45.7634 49.6893 45.6971 50.0227C45.6308 50.356 45.6648 50.7016 45.7949 51.0156C45.9249 51.3296 46.1452 51.598 46.4278 51.7869C46.7104 51.9758 47.0426 52.0766 47.3825 52.0766Z" fill="#0590DA"/>
<path d="M62.4952 51.574C62.8177 51.8953 63.2545 52.0755 63.7097 52.0751C64.1649 52.0746 64.6014 51.8936 64.9233 51.5717C65.2452 51.2498 65.4262 50.8134 65.4266 50.3582C65.4271 49.9029 65.2469 49.4661 64.9256 49.1436L61.4881 45.7061C61.1656 45.3848 60.7288 45.2046 60.2736 45.2051C59.8183 45.2055 59.3819 45.3865 59.06 45.7084C58.7381 46.0303 58.5571 46.4668 58.5566 46.922C58.5562 47.3772 58.7364 47.814 59.0577 48.1365L62.4952 51.574Z" fill="#0590DA"/>
<path d="M60.2732 65.8266C60.4989 65.8269 60.7225 65.7826 60.931 65.6961C61.1396 65.6097 61.329 65.483 61.4884 65.3231L64.9259 61.8856C65.2467 61.563 65.4266 61.1263 65.426 60.6713C65.4254 60.2163 65.2444 59.7802 64.9226 59.4584C64.6009 59.1367 64.1647 58.9557 63.7097 58.9551C63.2547 58.9545 62.8181 59.1343 62.4955 59.4552L59.058 62.8927C58.8176 63.1331 58.654 63.4393 58.5877 63.7727C58.5214 64.106 58.5554 64.4516 58.6855 64.7656C58.8156 65.0796 59.0358 65.348 59.3184 65.5369C59.601 65.7258 59.9333 65.8266 60.2732 65.8266Z" fill="#0590DA"/>
<path d="M49.6046 65.324C49.9271 65.6453 50.3639 65.8255 50.8191 65.8251C51.2743 65.8246 51.7108 65.6436 52.0327 65.3217C52.3546 64.9998 52.5356 64.5634 52.536 64.1081C52.5365 63.6529 52.3563 63.2161 52.035 62.8936L48.5975 59.4561C48.275 59.1348 47.8382 58.9546 47.3829 58.9551C46.9277 58.9555 46.4913 59.1365 46.1694 59.4584C45.8475 59.7803 45.6664 60.2168 45.666 60.672C45.6656 61.1272 45.8458 61.564 46.1671 61.8865L49.6046 65.324Z" fill="#0590DA"/>
</g>
<defs>
<clipPath id="clip0_123_1629">
<rect width="110" height="110" fill="white"/>
</clipPath>
</defs>
</svg>
