<svg width="122" height="122" viewBox="0 0 122 122" fill="none" xmlns="http://www.w3.org/2000/svg">
<path d="M28.924 96.2845C21.6301 96.2845 15.6953 90.356 15.6953 83.0711C15.6953 75.7839 21.6301 69.8555 28.924 69.8555C36.2178 69.8555 42.1526 75.7839 42.1526 83.0711C42.1526 90.356 36.2178 96.2845 28.924 96.2845ZM28.924 74.3507C24.1108 74.3507 20.1953 78.262 20.1953 83.0711C20.1953 87.8779 24.1108 91.7893 28.924 91.7893C33.7371 91.7893 37.6526 87.8779 37.6526 83.0711C37.6526 78.262 33.7371 74.3507 28.924 74.3507Z" fill="#0590DA"/>
<path d="M100.287 96.2845C92.9934 96.2845 87.0586 90.356 87.0586 83.0711C87.0586 75.7839 92.9934 69.8555 100.287 69.8555C107.581 69.8555 113.516 75.7839 113.516 83.0711C113.516 90.356 107.581 96.2845 100.287 96.2845ZM100.287 74.3507C95.4741 74.3507 91.5586 78.262 91.5586 83.0711C91.5586 87.8779 95.4741 91.7893 100.287 91.7893C105.1 91.7893 109.016 87.8779 109.016 83.0711C109.016 78.262 105.1 74.3507 100.287 74.3507Z" fill="#0590DA"/>
<path d="M89.3065 85.3194H39.8164C38.5739 85.3194 37.5664 84.3141 37.5664 83.0718C37.5664 81.8295 38.5739 80.8242 39.8164 80.8242H89.3065C90.5491 80.8242 91.5565 81.8295 91.5565 83.0718C91.5565 84.3141 90.5491 85.3194 89.3065 85.3194Z" fill="#0590DA"/>
<path d="M111.266 85.3185C110.023 85.3185 109.016 84.3132 109.016 83.0709C109.016 81.8285 110.023 80.8233 111.266 80.8233C114.565 80.8233 117.25 78.1411 117.25 74.8443V69.526C117.25 60.573 115.759 51.7428 112.818 43.2836L111.702 40.0702C110.485 36.5671 107.17 34.212 103.457 34.212H48.0032C45.2972 34.212 42.7902 35.4324 41.1246 37.5614L32.1927 48.9816C29.1298 52.8995 24.5386 55.472 19.598 56.0448L10.0454 57.1511C7.02637 57.5001 4.75 60.0528 4.75 63.0883V74.8443C4.75 78.1411 7.43506 80.8233 10.7343 80.8233H17.9457C19.1882 80.8233 20.1957 81.8285 20.1957 83.0709C20.1957 84.3132 19.1882 85.3185 17.9457 85.3185H10.7343C4.95325 85.3185 0.25 80.6191 0.25 74.8443V63.0883C0.25 57.77 4.23804 53.299 9.52686 52.6866L19.0795 51.5804C22.8324 51.1458 26.3195 49.1901 28.6464 46.216L37.5782 34.7958C40.1029 31.5671 43.902 29.7168 48.0032 29.7168H103.457C109.085 29.7168 114.107 33.2857 115.954 38.5952L117.07 41.8086C120.176 50.7441 121.75 60.0703 121.75 69.526V74.8443C121.75 80.6191 117.047 85.3185 111.266 85.3185Z" fill="#0590DA"/>
<path d="M62.218 58.3937H33.5899C32.6451 58.3937 31.8013 57.8032 31.4772 56.9187C31.152 56.0319 31.4168 55.0376 32.1386 54.4296C33.1812 53.5495 34.1908 52.4893 35.14 51.2799L44.0576 39.851C45.02 38.6328 46.4538 37.9414 47.9995 37.9414H71.9058C72.5694 37.9414 73.1978 38.2333 73.6252 38.7404C74.0536 39.2452 74.2349 39.9146 74.1239 40.5687L72.5606 49.6996C71.6839 54.7391 67.3344 58.3937 62.218 58.3937ZM38.8018 53.8985H62.218C65.1415 53.8985 67.6255 51.8111 68.1254 48.9358L69.2383 42.4366H47.9995C47.8391 42.4366 47.6919 42.5046 47.5974 42.6254L38.8018 53.8985Z" fill="#0590DA"/>
<path d="M84.8645 57.7637C82.5837 57.7637 80.4425 56.7804 78.9604 55.0552C77.4608 53.308 76.8214 51.0099 77.2081 48.7492L78.6891 39.8225C78.8681 38.736 79.8075 37.9414 80.9083 37.9414H103.442C105.574 37.9414 107.475 39.2847 108.174 41.2865L109.299 44.491C110.513 48.038 111.401 51.3216 112.019 54.5438C112.145 55.1935 111.977 55.8651 111.56 56.3809C111.144 56.8945 110.522 57.1996 109.859 57.215L84.9919 57.7637C84.9502 57.7637 84.9073 57.7637 84.8645 57.7637ZM82.8166 42.4366L81.6455 49.4933C81.484 50.4437 81.7509 51.4006 82.3772 52.1294C83.0122 52.869 83.9515 53.2795 84.9062 53.2685L107.039 52.7812C106.519 50.5907 105.859 48.3387 105.046 45.9616L103.926 42.7702C103.857 42.5683 103.662 42.4366 103.442 42.4366H82.8166Z" fill="#0590DA"/>
<path d="M67.8711 76.1065H57.3594C56.1168 76.1065 55.1094 75.1012 55.1094 73.8589C55.1094 72.6166 56.1168 71.6113 57.3594 71.6113H67.8711C69.1136 71.6113 70.1211 72.6166 70.1211 73.8589C70.1211 75.1012 69.1136 76.1065 67.8711 76.1065Z" fill="#0590DA"/>
</svg>
