<svg width="110" height="110" viewBox="0 0 110 110" fill="none" xmlns="http://www.w3.org/2000/svg">
<g clip-path="url(#clip0_123_1529)">
<path d="M78.0898 58.1479C77.577 57.3489 76.5139 57.1171 75.715 57.6303L63.9544 65.1819C63.1557 65.6947 62.9238 66.758 63.4368 67.5568C63.7651 68.0683 64.319 68.3471 64.8847 68.3471C65.2025 68.3471 65.5242 68.259 65.8116 68.0744L77.5722 60.5227C78.371 60.0099 78.6028 58.9466 78.0898 58.1479Z" fill="#0590DA"/>
<path d="M79.7185 62.4623L72.5599 67.059C71.7611 67.5717 71.5293 68.6351 72.0423 69.4338C72.3706 69.9453 72.9243 70.2241 73.4902 70.2241C73.808 70.2241 74.1296 70.136 74.4171 69.9514L81.5757 65.3547C82.3745 64.8419 82.6063 63.7786 82.0933 62.9799C81.5806 62.1811 80.5177 61.9491 79.7185 62.4623Z" fill="#0590DA"/>
<path d="M22.3438 83.7891C28.9778 83.7891 34.375 78.392 34.375 71.7578C34.375 65.1237 28.9778 59.7266 22.3438 59.7266C15.7097 59.7266 10.3125 65.1237 10.3125 71.7578C10.3125 78.392 15.7097 83.7891 22.3438 83.7891ZM22.3438 63.1641C27.0824 63.1641 30.9375 67.0193 30.9375 71.7578C30.9375 76.4963 27.0824 80.3516 22.3438 80.3516C17.6051 80.3516 13.75 76.4963 13.75 71.7578C13.75 67.0193 17.6051 63.1641 22.3438 63.1641Z" fill="#0590DA"/>
<path d="M65.7422 88.9453C61.9514 88.9453 58.8672 92.0295 58.8672 95.8203C58.8672 99.6111 61.9514 102.695 65.7422 102.695C69.533 102.695 72.6172 99.6111 72.6172 95.8203C72.6172 92.0295 69.533 88.9453 65.7422 88.9453ZM65.7422 99.2578C63.8468 99.2578 62.3047 97.7157 62.3047 95.8203C62.3047 93.9249 63.8468 92.3828 65.7422 92.3828C67.6376 92.3828 69.1797 93.9249 69.1797 95.8203C69.1797 97.7157 67.6376 99.2578 65.7422 99.2578Z" fill="#0590DA"/>
<path d="M108.066 65.9665V62.3047C108.066 60.4681 106.778 58.9294 105.058 58.5371V47.5052C105.058 45.8675 104.27 44.3124 102.948 43.3449L94.3744 37.0679C93.4554 36.3946 92.2532 36.2971 91.2371 36.8119C90.221 37.3274 89.5897 38.3553 89.5897 39.4945V46.5878C87.4683 45.6976 85.2341 45.0257 82.9159 44.5958V41.4787C82.9159 32.9242 75.9562 25.9644 67.4016 25.9644H67.0185V24.1005C67.0185 21.1774 64.6404 18.7992 61.7171 18.7992H60.3011V10.8175H74.3111C75.4593 10.8175 76.4618 10.0813 76.8055 8.98567C77.1493 7.89005 76.7469 6.71303 75.804 6.05675L68.7709 1.16423C67.8781 0.543194 66.8312 0.214844 65.7435 0.214844H46.4913C44.5559 0.214844 42.9813 1.78946 42.9813 3.72494V7.30742C42.9813 9.2429 44.5559 10.8175 46.4913 10.8175H49.6985V18.7992H48.2826C45.3595 18.7992 42.9813 21.1774 42.9813 24.1005V25.9644H42.598C34.0435 25.9644 27.0838 32.9242 27.0838 41.4787V42.3242H5.37915C3.99588 42.3242 2.69727 42.8649 1.7225 43.8466C0.745528 44.8306 0.21293 46.1369 0.222791 47.5245C0.39347 71.3681 2.91925 88.0057 8.16393 99.8328V104.629C8.16393 107.472 10.4771 109.785 13.3202 109.785H28.8026H31.366H44.0428H81.1972H87.4413C87.6763 109.785 87.9072 109.768 88.1339 109.737C88.3286 109.768 88.5274 109.785 88.7303 109.785H105.918C108.05 109.785 109.785 108.05 109.785 105.918V69.1797C109.785 67.8419 109.102 66.6611 108.066 65.9665ZM89.16 81.8555H42.3241V78.6498C42.3704 78.3522 42.4148 78.0505 42.4595 77.7493C42.7209 77.1328 43.3322 76.6992 44.0428 76.6992H87.4413C88.389 76.6992 89.16 77.4703 89.16 78.418V81.8555ZM36.5223 104.629V99.8328C37.3832 97.8913 38.1706 95.8192 38.8866 93.6077V104.629C38.8866 105.231 38.9914 105.81 39.1823 106.348H36.2266C36.4174 105.81 36.5223 105.231 36.5223 104.629ZM84.8632 69.1797V73.2617H54.6535C56.4049 62.5493 65.7256 54.3501 76.9248 54.3555C81.6178 54.3577 85.9772 55.8038 89.5897 58.2677V58.5371C87.8702 58.9294 86.5819 60.4681 86.5819 62.3047V65.9665C85.5464 66.6611 84.8632 67.8419 84.8632 69.1797ZM90.0194 62.3047C90.0194 62.0678 90.2122 61.875 90.4491 61.875H91.3085H103.34H104.199C104.436 61.875 104.629 62.0678 104.629 62.3047V65.3125H90.0194V62.3047ZM93.0272 40.3417L100.918 46.1186C101.358 46.4411 101.621 46.9593 101.621 47.5052V58.4375H93.0272V40.3417ZM89.5897 54.2273C85.8408 52.1239 81.5222 50.9202 76.9265 50.918C63.8275 50.9117 52.9576 60.6454 51.1758 73.2617H47.7102C49.5147 58.7496 61.9211 47.4805 76.9139 47.4805C81.4503 47.4805 85.7486 48.5145 89.5897 50.3557V54.2273ZM46.4913 7.38001C46.4513 7.38001 46.4188 7.34749 46.4188 7.30742V3.72494C46.4188 3.68486 46.4513 3.65234 46.4913 3.65234H65.7435C66.126 3.65234 66.494 3.76774 66.8079 3.98615L71.6868 7.38001H58.5824H51.4173H46.4913ZM56.8636 10.8175V18.7992H53.136V10.8175H56.8636ZM46.4188 24.1005C46.4188 23.0728 47.2549 22.2367 48.2826 22.2367H51.4173H58.5824H61.7171C62.7449 22.2367 63.581 23.0728 63.581 24.1005V25.9644H46.4188V24.1005ZM30.5213 41.4787C30.5213 34.8196 35.9389 29.4019 42.598 29.4019H44.7001H65.2998H67.4016C74.0608 29.4019 79.4784 34.8196 79.4784 41.4787V44.1451C78.6318 44.0794 77.7771 44.043 76.9139 44.043C60.0234 44.043 46.0706 56.8494 44.2478 73.2617H44.0428C43.7011 73.2617 43.3674 73.2959 43.044 73.3596C43.9286 65.8467 44.3934 57.29 44.4634 47.5245C44.4733 46.1369 43.9407 44.8306 42.9637 43.8466C41.9889 42.8649 40.6903 42.3242 39.307 42.3242H30.5213V41.4787ZM5.37915 45.7617H39.307C39.7675 45.7617 40.1998 45.9417 40.5244 46.2686C40.8511 46.5978 41.0293 47.035 41.0259 47.5C40.9442 58.9106 40.2884 68.7568 39.0432 77.1569C38.9638 77.4714 38.9134 77.7973 38.895 78.1315C37.6824 85.9136 35.9498 92.4248 33.6805 97.7539H11.0057C6.22572 86.5285 3.82184 70.0698 3.66029 47.5001C3.65693 47.035 3.83506 46.5978 4.16184 46.2686C4.48641 45.9417 4.91872 45.7617 5.37915 45.7617ZM11.6014 104.629V101.191H33.0848V104.629C33.0848 105.577 32.3137 106.348 31.366 106.348H13.3202C12.3725 106.348 11.6014 105.577 11.6014 104.629ZM44.0428 106.348C43.0951 106.348 42.3241 105.577 42.3241 104.629V85.293H89.16V104.629C89.16 105.577 88.389 106.348 87.4413 106.348H66.6898H44.0428ZM106.348 105.918C106.348 106.155 106.155 106.348 105.918 106.348H92.3019C92.4927 105.81 92.5975 105.231 92.5975 104.629V83.5742V78.418C92.5975 75.8677 90.736 73.7452 88.3007 73.3347V69.1797C88.3007 68.9428 88.4935 68.75 88.7303 68.75H105.918C106.155 68.75 106.348 68.9428 106.348 69.1797V105.918Z" fill="#0590DA"/>
</g>
<defs>
<clipPath id="clip0_123_1529">
<rect width="110" height="110" fill="white"/>
</clipPath>
</defs>
</svg>
