<svg width="110" height="110" viewBox="0 0 110 110" fill="none" xmlns="http://www.w3.org/2000/svg">
<path d="M79.75 24.2344C76.6563 22 75.7969 17.7031 77.8594 14.4375C78.2031 13.9219 78.5469 13.75 79.0625 13.75H79.9219C82.3281 13.75 84.2188 11.8594 84.2188 9.45312C84.2188 7.04688 82.3281 5.15625 79.9219 5.15625H30.0781C27.6719 5.15625 25.7812 7.04688 25.7812 9.45312C25.7812 11.8594 27.6719 13.75 30.0781 13.75H30.9375C31.4531 13.75 31.7969 13.9219 32.1406 14.4375C34.0313 17.7031 33.3438 22 30.25 24.2344C20.9688 31.1094 15.4688 42.1094 15.4688 53.625C15.4688 59.2969 16.8438 64.9687 19.4219 70.125L36.7812 104.844L55 104.672L73.2187 104.844L90.5781 69.9531C93.1563 64.7969 94.5312 59.125 94.5312 53.4531C94.5312 42.1094 89.0313 31.1094 79.75 24.2344ZM36.0938 48.125V53.2812H18.9062C18.9062 50.875 19.25 48.6406 19.7656 46.4062H22.3438V51.5625H25.7812V42.9688H20.625C20.9688 41.7656 21.4844 40.7344 22 39.5312H87.8281C88.3437 40.7344 88.8594 41.7656 89.2031 42.9688H84.0469V51.5625H87.4844V46.4062H90.0625C90.5781 48.6406 90.9219 50.875 90.9219 53.2812H73.9062V48.125H70.4688V56.7188H90.9219C90.75 57.9219 90.5781 58.9531 90.4062 60.1562H19.5937C19.4219 58.9531 19.25 57.9219 19.0781 56.7188H39.5312V48.125H36.0938ZM32.3125 26.9844C36.7812 23.5469 37.9844 17.5313 35.0625 12.7188C34.2031 11.1719 32.6562 10.3125 30.9375 10.3125H30.0781C29.5625 10.3125 29.2188 9.96875 29.2188 9.45312C29.2188 8.9375 29.5625 8.59375 30.0781 8.59375H79.9219C80.4375 8.59375 80.7812 8.9375 80.7812 9.45312C80.7812 9.96875 80.4375 10.3125 79.9219 10.3125H79.0625C77.3438 10.3125 75.7969 11.1719 74.9375 12.7188C72.0156 17.5313 73.2188 23.7187 77.6875 26.9844C81.125 29.5625 83.875 32.6562 85.9375 36.0938H23.8906C26.125 32.6562 28.875 29.3906 32.3125 26.9844ZM55 101.234L38.8438 101.406L37.125 97.9688H72.875L71.1563 101.406L55 101.234ZM74.5938 94.5312H35.4063L22.3438 68.5781C21.4844 67.0313 20.9687 65.3125 20.4531 63.5938H89.5469C89.0312 65.3125 88.3438 66.8594 87.6562 68.5781L74.5938 94.5312Z" fill="#0590DA"/>
<path d="M63.5938 53.2812H46.4062V48.125H42.9688V56.7188H67.0312V48.125H63.5938V53.2812Z" fill="#0590DA"/>
<path d="M49.8438 51.5625H53.2812V42.9688H29.2188V51.5625H32.6562V46.4062H49.8438V51.5625Z" fill="#0590DA"/>
<path d="M60.1562 46.4062H77.3438V51.5625H80.7812V42.9688H56.7188V51.5625H60.1562V46.4062Z" fill="#0590DA"/>
</svg>
