<svg width="110" height="110" viewBox="0 0 110 110" fill="none" xmlns="http://www.w3.org/2000/svg">
<g clip-path="url(#clip0_123_1543)">
<path d="M104.677 3.54839H88.1153C85.5481 3.54839 83.3463 5.38113 82.8815 7.90581L80.4934 20.8716C78.8931 18.7887 76.7126 17.1671 74.1755 16.3137C72.7685 12.0468 69.4029 8.72548 65.1094 7.3771L63.4984 4.15516C62.2156 1.59145 59.6395 0 56.7742 0C54.0348 0 51.5598 1.45484 50.2274 3.82339C45.9002 5.17887 42.5132 8.53742 41.1223 12.8487C37.6644 14.3142 35.0989 17.2931 34.1763 20.9798L34.0095 21.6505C29.5456 23.1674 26.1463 26.9961 25.2131 31.664L25.1581 31.9355H24.8387C22.8818 31.9355 21.2903 33.5269 21.2903 35.4839V39.0323C21.2903 40.9892 22.8818 42.5806 24.8387 42.5806H25.0073L26.4568 57.074C24.6755 57.5814 23.1923 58.7542 22.2768 60.3226H20.8698L11.3903 25.5626C10.7055 23.0468 8.40435 21.2903 5.79806 21.2903C2.60097 21.2903 0 23.8913 0 27.0884V27.8673C0 28.3658 0.063871 28.8644 0.189839 29.3434L8.34226 60.3226H7.09677C5.13984 60.3226 3.54839 61.914 3.54839 63.871V67.4194C3.54839 69.3763 5.13984 70.9677 7.09677 70.9677H7.17484L8.71839 104.92C8.8479 107.768 11.1845 110 14.0356 110H46.129H99.3548C101.312 110 102.903 108.409 102.903 106.452V92.2581C102.903 90.3011 101.312 88.7097 99.3548 88.7097H88.7097V74.5161C88.7097 72.5592 87.1182 70.9677 85.1613 70.9677H81.9766L91.9565 17.7419H104.677C107.612 17.7419 110 15.3539 110 12.4194V8.87097C110 5.93645 107.612 3.54839 104.677 3.54839ZM35.9132 24.7855L36.9476 24.5265L37.6182 21.8403C38.3226 19.0229 40.3877 16.7927 43.1413 15.8755L44.0656 15.5685L44.3016 14.6229C45.2366 10.8829 48.1427 7.97855 51.881 7.04355L52.6723 6.84661L53.2258 5.74129C53.9018 4.38935 55.2608 3.54839 56.7742 3.54839C58.2876 3.54839 59.6466 4.38935 60.3226 5.74129L62.6503 10.3932L63.4416 10.5902C67.1816 11.5252 70.086 14.4295 71.021 18.1695L71.28 19.2039L72.3144 19.4611C75.8219 20.3376 78.5755 23.1444 79.4306 26.6448L78.4548 31.9355H28.8094C29.6752 28.4474 32.4092 25.6619 35.9132 24.7855ZM24.8387 35.4839H77.8019L77.149 39.0323H24.8387V35.4839ZM76.4944 42.5806L71.2658 70.9677H60.3226C58.3656 70.9677 56.7742 72.5592 56.7742 74.5161V88.7097H48.7921L49.5994 70.9677H49.6774C51.6344 70.9677 53.2258 69.3763 53.2258 67.4194V63.871C53.2258 61.914 51.6344 60.3226 49.6774 60.3226H34.4974C33.5305 58.6655 31.9302 57.4324 30.014 56.98L28.5734 42.5806H76.4944ZM35.4839 63.871H49.6774V67.4194H34.4974C35.1077 66.3708 35.4839 65.1697 35.4839 63.871ZM28.3871 60.3226C30.344 60.3226 31.9355 61.914 31.9355 63.871C31.9355 65.8279 30.344 67.4194 28.3871 67.4194C26.4302 67.4194 24.8387 65.8279 24.8387 63.871C24.8387 61.914 26.4302 60.3226 28.3871 60.3226ZM3.6229 28.4368C3.57323 28.254 3.54839 28.0606 3.54839 27.8673V27.0884C3.54839 25.8465 4.5579 24.8387 5.79806 24.8387C6.80935 24.8387 7.70177 25.52 7.9679 26.4958L17.1937 60.3226H12.0131L3.6229 28.4368ZM7.09677 63.871H21.2903C21.2903 65.1697 21.6665 66.3708 22.2768 67.4194H7.09677V63.871ZM26.4231 70.9677C25.2308 81.2882 20.036 90.5247 11.9048 96.8763L10.7285 70.9677H26.4231ZM14.0356 106.452C13.0847 106.452 12.3058 105.708 12.2632 104.759L12.0982 101.136C22.2324 94.121 28.6958 83.2274 29.9927 70.9677H46.0474L45.2348 88.8374C43.7126 89.2366 42.5806 90.6134 42.5806 92.2581V106.452H14.0356ZM46.129 92.2581H70.9677V106.452H46.129V92.2581ZM99.3566 106.452H74.5161V92.2581H99.3548L99.3566 106.452ZM85.1613 88.7097H60.3226V74.5161H85.1613V88.7097ZM78.3661 70.9677H74.8727L84.6769 17.7419H88.346L78.3661 70.9677ZM106.452 12.4194C106.452 13.3987 105.655 14.1935 104.677 14.1935H85.3316L86.3713 8.54806C86.5256 7.70887 87.2602 7.09677 88.1153 7.09677H104.677C105.655 7.09677 106.452 7.89161 106.452 8.87097V12.4194Z" fill="#0590DA"/>
<path d="M49.6777 17.7413H53.2261C53.2261 15.7844 54.8176 14.1929 56.7745 14.1929V10.6445C52.8606 10.6445 49.6777 13.8274 49.6777 17.7413Z" fill="#0590DA"/>
<path d="M39.0332 28.3878H42.5816C42.5816 26.4309 44.173 24.8394 46.13 24.8394V21.291C42.2161 21.291 39.0332 24.4739 39.0332 28.3878Z" fill="#0590DA"/>
<path d="M63.8711 21.291V24.8394C65.828 24.8394 67.4195 26.4309 67.4195 28.3878H70.9679C70.9679 24.4739 67.785 21.291 63.8711 21.291Z" fill="#0590DA"/>
</g>
<defs>
<clipPath id="clip0_123_1543">
<rect width="110" height="110" fill="white"/>
</clipPath>
</defs>
</svg>
