<svg width="110" height="110" viewBox="0 0 110 110" fill="none" xmlns="http://www.w3.org/2000/svg">
<path d="M93.534 30.52C94.1791 29.645 94.5283 28.5871 94.5309 27.5V25.7812C94.5294 24.4142 93.9857 23.1035 93.019 22.1369C92.0524 21.1702 90.7417 20.6265 89.3747 20.625H87.6559V10.3125C87.6544 8.94544 87.1107 7.6348 86.144 6.66814C85.1774 5.70148 83.8667 5.15775 82.4997 5.15625H72.1872C70.8201 5.15775 69.5095 5.70148 68.5428 6.66814C67.5761 7.6348 67.0324 8.94544 67.0309 10.3125V20.625H65.3122C63.9451 20.6265 62.6345 21.1702 61.6678 22.1369C60.7011 23.1035 60.1574 24.4142 60.1559 25.7812V27.5C60.1585 28.5871 60.5077 29.6451 61.1528 30.5202C58.7278 32.2709 56.7508 34.5698 55.3828 37.2296C54.0149 39.8893 53.2947 42.8346 53.2809 45.8255V96.25C53.2836 98.5284 54.1899 100.713 55.8009 102.324C57.412 103.935 59.5963 104.841 61.8747 104.844H92.8122C95.0905 104.841 97.2748 103.935 98.8859 102.324C100.497 100.713 101.403 98.5284 101.406 96.25V45.8255C101.392 42.8346 100.672 39.8892 99.304 37.2295C97.936 34.5697 95.959 32.2708 93.534 30.52ZM56.7184 45.8255C56.7184 45.4425 56.7652 45.0665 56.7937 44.6875H97.8931C97.9217 45.0665 97.9684 45.4425 97.9684 45.8255V91.0938H56.7184V45.8255ZM70.4684 10.3125C70.4689 9.8568 70.6501 9.41989 70.9723 9.09766C71.2946 8.77543 71.7315 8.59421 72.1872 8.59375H82.4997C82.9554 8.59421 83.3923 8.77543 83.7145 9.09766C84.0367 9.41989 84.218 9.8568 84.2184 10.3125V20.625H70.4684V10.3125ZM63.5934 25.7812C63.5939 25.3255 63.7751 24.8886 64.0973 24.5664C64.4196 24.2442 64.8565 24.063 65.3122 24.0625H89.3747C89.8304 24.063 90.2673 24.2442 90.5895 24.5664C90.9117 24.8886 91.093 25.3255 91.0934 25.7812V27.5C91.093 27.9557 90.9117 28.3926 90.5895 28.7148C90.2673 29.0371 89.8304 29.2183 89.3747 29.2188H65.3122C64.8565 29.2183 64.4196 29.0371 64.0973 28.7148C63.7751 28.3926 63.5939 27.9557 63.5934 27.5V25.7812ZM64.2312 32.5597L64.2551 32.5452C64.6027 32.6185 64.9569 32.6557 65.3122 32.6562H89.3747C89.7299 32.6559 90.0842 32.6187 90.4319 32.5454L90.4575 32.5605C93.7049 34.5299 96.1176 37.6215 97.2391 41.25H57.4477C58.5697 37.6209 60.9831 34.5291 64.2312 32.5597ZM92.8122 101.406H61.8747C60.5076 101.405 59.197 100.861 58.2303 99.8944C57.2636 98.9277 56.7199 97.6171 56.7184 96.25V94.5312H97.9684V96.25C97.9669 97.6171 97.4232 98.9277 96.4565 99.8944C95.4899 100.861 94.1792 101.405 92.8122 101.406ZM86.7965 55C85.2017 55.0019 83.6727 55.6363 82.545 56.764C81.4172 57.8918 80.7828 59.4208 80.7809 61.0156V79.9219C80.7809 81.5173 81.4147 83.0474 82.5429 84.1756C83.671 85.3037 85.2011 85.9375 86.7965 85.9375C88.392 85.9375 89.9221 85.3037 91.0502 84.1756C92.1784 83.0474 92.8122 81.5173 92.8122 79.9219V61.0156C92.8103 59.4208 92.1759 57.8918 91.0481 56.764C89.9204 55.6363 88.3914 55.0019 86.7965 55ZM89.3747 79.9219C89.3747 80.6056 89.103 81.2614 88.6196 81.7449C88.1361 82.2284 87.4803 82.5 86.7965 82.5C86.1128 82.5 85.457 82.2284 84.9735 81.7449C84.49 81.2614 84.2184 80.6056 84.2184 79.9219V61.0156C84.2184 60.3319 84.49 59.6761 84.9735 59.1926C85.457 58.7091 86.1128 58.4375 86.7965 58.4375C87.4803 58.4375 88.1361 58.7091 88.6196 59.1926C89.103 59.6761 89.3747 60.3319 89.3747 61.0156V79.9219ZM46.4059 61.875H10.3122C10.0313 61.8751 9.7547 61.9439 9.50661 62.0756C9.25851 62.2073 9.04648 62.3978 8.88906 62.6305C8.73164 62.8631 8.63362 63.1308 8.6036 63.41C8.57357 63.6893 8.61245 63.9717 8.71683 64.2324L12.067 72.6088L14.9691 98.7274C15.1542 100.41 15.954 101.965 17.2151 103.093C18.4761 104.222 20.1097 104.846 21.8022 104.844H38.2419C39.9647 104.853 41.6274 104.211 42.8973 103.046C44.1672 101.882 44.9506 100.281 45.0909 98.5638L48.1188 63.7419C48.1395 63.5045 48.1106 63.2654 48.0339 63.0398C47.9572 62.8142 47.8344 62.607 47.6733 62.4314C47.5122 62.2558 47.3163 62.1157 47.0981 62.0199C46.8799 61.9241 46.6442 61.8748 46.4059 61.875ZM38.2419 101.406H21.8022C20.956 101.407 20.1392 101.095 19.5087 100.531C18.8782 99.9666 18.4782 99.1892 18.3857 98.3481L15.4576 71.9971C15.4408 71.843 15.403 71.6919 15.3452 71.5481L12.8509 65.3125H44.5311L43.9333 72.1875H30.9372C30.4813 72.1875 30.0442 72.3686 29.7218 72.6909C29.3995 73.0132 29.2184 73.4504 29.2184 73.9062C29.2184 74.3621 29.3995 74.7993 29.7218 75.1216C30.0442 75.4439 30.4813 75.625 30.9372 75.625H43.6344L43.3355 79.0625H36.0934C35.6376 79.0625 35.2004 79.2436 34.8781 79.5659C34.5557 79.8882 34.3747 80.3254 34.3747 80.7812C34.3747 81.2371 34.5557 81.6743 34.8781 81.9966C35.2004 82.3189 35.6376 82.5 36.0934 82.5H43.0372L42.7383 85.9375H30.9372C30.4813 85.9375 30.0442 86.1186 29.7218 86.4409C29.3995 86.7632 29.2184 87.2004 29.2184 87.6562C29.2184 88.1121 29.3995 88.5493 29.7218 88.8716C30.0442 89.1939 30.4813 89.375 30.9372 89.375H42.439L42.1402 92.8125H36.0934C35.6376 92.8125 35.2004 92.9936 34.8781 93.3159C34.5557 93.6382 34.3747 94.0754 34.3747 94.5312C34.3747 94.9871 34.5557 95.4243 34.8781 95.7466C35.2004 96.0689 35.6376 96.25 36.0934 96.25H41.8413L41.666 98.2666C41.5957 99.125 41.204 99.9253 40.5691 100.507C39.9343 101.089 39.1031 101.411 38.2419 101.406ZM65.3122 61.875C66.332 61.875 67.3289 61.5726 68.1768 61.006C69.0248 60.4394 69.6857 59.6341 70.0759 58.692C70.4662 57.7498 70.5683 56.713 70.3693 55.7128C70.1704 54.7126 69.6793 53.7938 68.9582 53.0727C68.2371 52.3516 67.3183 51.8605 66.3181 51.6616C65.3179 51.4626 64.2811 51.5647 63.339 51.955C62.3968 52.3453 61.5915 53.0062 61.0249 53.8541C60.4583 54.702 60.1559 55.6989 60.1559 56.7188C60.1574 58.0858 60.7011 59.3965 61.6678 60.3631C62.6345 61.3298 63.9451 61.8735 65.3122 61.875ZM65.3122 55C65.6521 55 65.9844 55.1008 66.267 55.2897C66.5497 55.4785 66.77 55.747 66.9001 56.061C67.0302 56.3751 67.0642 56.7207 66.9979 57.0541C66.9316 57.3875 66.7679 57.6937 66.5275 57.9341C66.2871 58.1745 65.9809 58.3382 65.6475 58.4045C65.3141 58.4708 64.9685 58.4368 64.6544 58.3067C64.3404 58.1766 64.0719 57.9563 63.8831 57.6736C63.6942 57.391 63.5934 57.0587 63.5934 56.7188C63.5939 56.263 63.7751 55.8261 64.0973 55.5039C64.4196 55.1817 64.8565 55.0005 65.3122 55ZM72.1872 63.5938C71.1674 63.5938 70.1704 63.8962 69.3225 64.4627C68.4746 65.0293 67.8137 65.8346 67.4234 66.7768C67.0332 67.719 66.931 68.7557 67.13 69.7559C67.3289 70.7561 67.82 71.6749 68.5411 72.396C69.2623 73.1171 70.181 73.6082 71.1812 73.8072C72.1814 74.0061 73.2182 73.904 74.1604 73.5138C75.1026 73.1235 75.9079 72.4626 76.4744 71.6147C77.041 70.7667 77.3434 69.7698 77.3434 68.75C77.3419 67.3829 76.7982 66.0723 75.8315 65.1056C74.8649 64.139 73.5542 63.5953 72.1872 63.5938ZM72.1872 70.4688C71.8472 70.4688 71.5149 70.3679 71.2323 70.1791C70.9496 69.9902 70.7293 69.7218 70.5993 69.4077C70.4692 69.0937 70.4351 68.7481 70.5014 68.4147C70.5678 68.0813 70.7315 67.775 70.9718 67.5347C71.2122 67.2943 71.5184 67.1306 71.8519 67.0643C72.1853 66.998 72.5308 67.032 72.8449 67.1621C73.159 67.2922 73.4274 67.5125 73.6163 67.7951C73.8051 68.0778 73.9059 68.4101 73.9059 68.75C73.9055 69.2057 73.7242 69.6426 73.402 69.9648C73.0798 70.2871 72.6429 70.4683 72.1872 70.4688ZM65.3122 75.625C64.2924 75.625 63.2955 75.9274 62.4475 76.494C61.5996 77.0606 60.9387 77.8659 60.5484 78.808C60.1582 79.7502 60.056 80.787 60.255 81.7872C60.4539 82.7874 60.945 83.7062 61.6662 84.4273C62.3873 85.1484 63.306 85.6395 64.3062 85.8384C65.3064 86.0374 66.3432 85.9353 67.2854 85.545C68.2276 85.1547 69.0329 84.4938 69.5994 83.6459C70.166 82.798 70.4684 81.8011 70.4684 80.7812C70.4669 79.4142 69.9232 78.1035 68.9565 77.1369C67.9899 76.1702 66.6792 75.6265 65.3122 75.625ZM65.3122 82.5C64.9722 82.5 64.6399 82.3992 64.3573 82.2103C64.0746 82.0215 63.8543 81.753 63.7243 81.439C63.5942 81.1249 63.5601 80.7793 63.6264 80.4459C63.6928 80.1125 63.8565 79.8063 64.0968 79.5659C64.3372 79.3255 64.6434 79.1618 64.9769 79.0955C65.3103 79.0292 65.6558 79.0632 65.9699 79.1933C66.284 79.3234 66.5524 79.5437 66.7413 79.8264C66.9301 80.109 67.0309 80.4413 67.0309 80.7812C67.0305 81.237 66.8492 81.6739 66.527 81.9961C66.2048 82.3183 65.7679 82.4995 65.3122 82.5Z" fill="#0590DA"/>
</svg>
