<svg width="110" height="110" viewBox="0 0 110 110" fill="none" xmlns="http://www.w3.org/2000/svg">
<path d="M55 101.407C54.7743 101.407 54.5508 101.362 54.3422 101.276C54.1337 101.19 53.9442 101.063 53.7846 100.903C53.625 100.744 53.4984 100.554 53.412 100.346C53.3256 100.137 53.2812 99.9136 53.2813 99.6879V51.5226C53.2839 51.4228 53.2952 51.3234 53.3148 51.2255C53.3809 50.8906 53.5458 50.5831 53.7881 50.3427C53.8486 50.2834 53.9131 50.2284 53.9812 50.1782C54.1085 50.0838 54.2487 50.0081 54.3974 49.9533L97.3309 32.7792C97.664 32.6458 98.0305 32.6202 98.3789 32.706C98.7272 32.7918 99.0399 32.9847 99.2729 33.2575L109.587 45.2888C109.76 45.4909 109.884 45.7304 109.948 45.9884C110.013 46.2464 110.017 46.5159 109.96 46.7757C109.903 47.0355 109.786 47.2785 109.619 47.4856C109.452 47.6927 109.24 47.8583 108.998 47.9693L99.6875 52.2376V79.0629C99.6876 79.3868 99.5961 79.7041 99.4235 79.9783C99.251 80.2524 99.0044 80.4721 98.7123 80.6121L55.7436 101.237C55.5117 101.349 55.2575 101.407 55 101.407ZM56.7188 56.1334V96.9571L96.25 77.9821V53.8137L67.7597 66.8756C67.4232 67.0298 67.0459 67.0712 66.6839 66.9938C66.3219 66.9164 65.9945 66.7242 65.7505 66.4459L56.7188 56.1334ZM57.892 52.2561L67.4912 63.2166L97.1867 49.6025C97.2303 49.5807 97.2756 49.5589 97.3226 49.5404L105.493 45.7941L97.4652 36.4282L57.892 52.2561Z" fill="#0590DA"/>
<path d="M54.9983 101.401C54.7414 101.401 54.4877 101.343 54.2564 101.232L11.2876 80.6068C10.9956 80.4667 10.749 80.247 10.5765 79.9729C10.4039 79.6988 10.3124 79.3814 10.3125 79.0575V51.1094C10.3125 50.6535 10.4936 50.2164 10.8159 49.894C11.1382 49.5717 11.5754 49.3906 12.0312 49.3906C12.4871 49.3906 12.9243 49.5717 13.2466 49.894C13.5689 50.2164 13.75 50.6535 13.75 51.1094V77.9766L55.7436 98.1333C56.0948 98.3019 56.3783 98.5849 56.5476 98.9359C56.7169 99.2868 56.762 99.6849 56.6753 100.065C56.5887 100.445 56.3756 100.784 56.0709 101.027C55.7661 101.269 55.3879 101.402 54.9983 101.401Z" fill="#0590DA"/>
<path d="M42.9678 67.0315C42.7204 67.0318 42.4759 66.9785 42.2511 66.8754L1.00106 47.9473C0.759177 47.836 0.546438 47.67 0.379593 47.4625C0.212749 47.255 0.0963537 47.0115 0.0395714 46.7514C-0.017211 46.4912 -0.0128307 46.2214 0.0523676 45.9632C0.117566 45.7051 0.241802 45.4655 0.415296 45.2635L10.7563 33.2541C10.9902 32.9825 11.303 32.7907 11.6512 32.7055C11.9994 32.6203 12.3655 32.6461 12.6983 32.7791L55.6385 49.9666C55.8935 50.0688 56.1202 50.2306 56.2998 50.4384C56.4794 50.6463 56.6066 50.8941 56.6707 51.1612C56.7348 51.4283 56.734 51.7068 56.6683 51.9735C56.6026 52.2403 56.4739 52.4873 56.2931 52.6941L44.2619 66.4441C44.1006 66.6287 43.9016 66.7766 43.6784 66.8779C43.4552 66.9792 43.2129 67.0316 42.9678 67.0315ZM4.51075 45.7754L42.5196 63.2163L52.107 52.2559L12.5607 36.4279L4.51075 45.7754Z" fill="#0590DA"/>
<path d="M12.0648 36.0937C11.6703 36.0942 11.2877 35.959 10.9812 35.7108C10.6746 35.4626 10.4627 35.1166 10.381 34.7307C10.2993 34.3448 10.3529 33.9425 10.5326 33.5914C10.7124 33.2403 11.0074 32.9617 11.3682 32.8023L23.8459 27.3036C24.2629 27.1203 24.7355 27.1099 25.1601 27.2747C25.5847 27.4396 25.9265 27.7661 26.1106 28.1827C26.2947 28.5993 26.3059 29.0719 26.1419 29.4968C25.9779 29.9217 25.652 30.2642 25.2357 30.449L12.758 35.9476C12.5395 36.0437 12.3035 36.0935 12.0648 36.0937Z" fill="#0590DA"/>
<path d="M79.3144 27.8953C79.0762 27.8953 78.8407 27.8455 78.6229 27.7493L64.616 21.5793C64.408 21.4892 64.2199 21.3589 64.0624 21.1959C63.905 21.0328 63.7813 20.8402 63.6986 20.6292C63.6159 20.4181 63.5757 20.1928 63.5804 19.9662C63.5852 19.7396 63.6347 19.5161 63.7261 19.3087C63.8175 19.1013 63.949 18.914 64.1131 18.7577C64.2772 18.6013 64.4706 18.4789 64.6822 18.3976C64.8938 18.3163 65.1194 18.2776 65.346 18.2838C65.5725 18.2901 65.7957 18.341 66.0025 18.4338L80.0093 24.6039C80.3702 24.763 80.6654 25.0414 80.8453 25.3924C81.0253 25.7434 81.079 26.1456 80.9975 26.5316C80.916 26.9175 80.7043 27.2637 80.3978 27.512C80.0914 27.7603 79.7088 27.8957 79.3144 27.8953Z" fill="#0590DA"/>
<path d="M97.9649 36.0938C97.7267 36.0937 97.4912 36.0439 97.2733 35.9477L87.1304 31.4796C86.9232 31.3887 86.7361 31.2579 86.5796 31.0946C86.4231 30.9313 86.3003 30.7387 86.2184 30.5279C86.1364 30.3171 86.0969 30.0921 86.102 29.866C86.1071 29.6399 86.1568 29.417 86.2482 29.2101C86.3396 29.0032 86.471 28.8163 86.6347 28.6603C86.7985 28.5042 86.9914 28.382 87.2024 28.3007C87.4135 28.2193 87.6385 28.1804 87.8646 28.1861C88.0907 28.1918 88.3135 28.2421 88.5201 28.3341L98.6598 32.8023C99.0207 32.9615 99.3159 33.2399 99.4958 33.5909C99.6757 33.9419 99.7295 34.3441 99.648 34.73C99.5665 35.116 99.3548 35.4621 99.0483 35.7104C98.7419 35.9587 98.3593 36.0941 97.9649 36.0938Z" fill="#0590DA"/>
<path d="M49.8249 19.4568C49.4305 19.457 49.048 19.3215 48.7416 19.0731C48.4352 18.8246 48.2237 18.4784 48.1424 18.0924C48.0611 17.7065 48.115 17.3043 48.2952 16.9534C48.4753 16.6025 48.7707 16.3242 49.1317 16.1653L54.3047 13.8961C54.5268 13.7981 54.7672 13.7483 55.0099 13.75C55.2527 13.7518 55.4923 13.805 55.713 13.9061C55.9882 14.032 56.2702 14.1529 56.5505 14.2754C56.8459 14.403 57.1397 14.5305 57.43 14.6614C57.8449 14.8506 58.1676 15.1969 58.3272 15.624C58.4868 16.0512 58.4702 16.5242 58.281 16.9391C58.0918 17.354 57.7456 17.6768 57.3184 17.8363C56.8913 17.9959 56.4182 17.9793 56.0033 17.7901L55.1859 17.4292C55.1221 17.4023 55.0584 17.3738 54.9946 17.3469L50.5147 19.3107C50.2974 19.4068 50.0625 19.4565 49.8249 19.4568Z" fill="#0590DA"/>
<path d="M32.9468 26.8988C32.5523 26.8991 32.1698 26.7638 31.8633 26.5154C31.5569 26.2671 31.3451 25.921 31.2636 25.5351C31.1822 25.1491 31.2359 24.7469 31.4158 24.3959C31.5958 24.0449 31.891 23.7665 32.2519 23.6074L40.5536 19.9466C40.9702 19.7659 41.4413 19.7574 41.8642 19.923C42.287 20.0886 42.6271 20.4147 42.8103 20.8302C42.9934 21.2457 43.0047 21.7168 42.8416 22.1406C42.6786 22.5644 42.3544 22.9065 41.94 23.0921L33.6383 26.7528C33.4205 26.849 33.1849 26.8987 32.9468 26.8988Z" fill="#0590DA"/>
<path d="M31.1401 37.1938C30.9143 37.1941 30.6908 37.1497 30.4822 37.0633C30.2737 36.9768 30.0843 36.8501 29.9249 36.6902L22.3802 29.1438C21.2562 28.0203 20.6242 26.4965 20.623 24.9072C20.6219 23.318 21.2516 21.7933 22.374 20.6681C23.4963 19.5429 25.0194 18.9092 26.6086 18.9063C28.1978 18.9033 29.7233 19.5314 30.8497 20.6525L39.4367 29.2412C39.7305 29.5366 39.9921 29.8624 40.2172 30.213C40.3406 30.4028 40.4252 30.6151 40.4663 30.8376C40.5073 31.0602 40.504 31.2887 40.4565 31.51C40.409 31.7313 40.3183 31.941 40.1895 32.1272C40.0608 32.3133 39.8965 32.4721 39.7062 32.5946C39.5158 32.7171 39.3032 32.8007 39.0804 32.8408C38.8576 32.8808 38.6292 32.8765 38.4081 32.828C38.187 32.7795 37.9777 32.6878 37.7922 32.5582C37.6066 32.4286 37.4485 32.2636 37.3269 32.0727C37.2342 31.9283 37.1267 31.7938 37.0063 31.6715L28.431 23.0947C27.9412 22.6334 27.2937 22.3765 26.6208 22.3765C25.948 22.3765 25.3005 22.6334 24.8106 23.0947C24.3317 23.5751 24.0628 24.2258 24.0628 24.9041C24.0628 25.5824 24.3317 26.233 24.8106 26.7135L32.3553 34.2598C32.5956 34.5002 32.7592 34.8064 32.8255 35.1398C32.8918 35.4731 32.8578 35.8187 32.7277 36.1327C32.5977 36.4467 32.3774 36.7151 32.0949 36.904C31.8123 37.0928 31.48 37.1937 31.1401 37.1938Z" fill="#0590DA"/>
<path d="M56.372 37.8041C56.1467 37.8052 55.9234 37.7617 55.7149 37.6763C55.5064 37.5908 55.3169 37.465 55.1572 37.3061C54.9975 37.1471 54.8708 36.9582 54.7843 36.7502C54.6978 36.5421 54.6532 36.3191 54.6532 36.0938C54.6535 35.9846 54.663 35.8757 54.6817 35.7681C54.717 35.5923 54.7361 35.4137 54.7388 35.2344C54.7345 34.5577 54.4661 33.9095 53.9908 33.4279C53.5154 32.9463 52.8708 32.6694 52.1942 32.6562H40.0942C39.8539 32.6565 39.6147 32.6881 39.3826 32.7502L39.3272 32.7704C38.9466 32.8976 38.6023 33.1147 38.3235 33.4032C38.2278 33.4947 38.1433 33.5972 38.0717 33.7086C37.834 34.0973 37.4516 34.3755 37.0087 34.4822C36.5658 34.5889 36.0987 34.5153 35.7101 34.2776C35.3214 34.0399 35.0432 33.6575 34.9365 33.2146C34.8298 32.7717 34.9034 32.3046 35.1411 31.916C35.3451 31.5825 35.5886 31.2748 35.8662 30.9995C36.4996 30.3456 37.2765 29.848 38.1355 29.546C38.1969 29.5204 38.2597 29.498 38.3235 29.4789L38.3217 29.4771C38.8973 29.3075 39.4941 29.2205 40.0942 29.2188H52.1942C53.7846 29.2251 55.3075 29.862 56.4289 30.9898C57.5504 32.1175 58.1788 33.644 58.1762 35.2344C58.174 35.6095 58.138 35.9836 58.0688 36.3522C58.004 36.7561 57.7979 37.1239 57.487 37.3898C57.1762 37.6558 56.781 37.8026 56.372 37.8041Z" fill="#0590DA"/>
<path d="M51.646 41.2482H40.0948C39.8514 41.2482 39.5828 41.2281 39.3613 41.2063C38.9077 41.1618 38.4903 40.9389 38.201 40.5867C37.9118 40.2344 37.7743 39.7817 37.8188 39.3281C37.8633 38.8745 38.0862 38.4571 38.4384 38.1678C38.7906 37.8786 39.2434 37.741 39.697 37.7856C39.8178 37.7973 39.9622 37.8107 40.0948 37.8107H51.646C52.1018 37.8107 52.539 37.9918 52.8613 38.3142C53.1837 38.6365 53.3647 39.0737 53.3647 39.5295C53.3647 39.9853 53.1837 40.4225 52.8613 40.7448C52.539 41.0672 52.1018 41.2482 51.646 41.2482Z" fill="#0590DA"/>
<path d="M51.5605 51.9025C51.3348 51.9026 51.1112 51.8583 50.9027 51.7719C50.6941 51.6856 50.5045 51.559 50.3449 51.3994C50.1853 51.2398 50.0587 51.0502 49.9724 50.8416C49.886 50.6331 49.8417 50.4095 49.8418 50.1838V40.3547C49.8503 38.7648 50.4878 37.2429 51.6151 36.1217C52.7423 35.0005 54.2675 34.3711 55.8574 34.3711C57.4473 34.3711 58.9726 35.0005 60.0998 36.1217C61.227 37.2429 61.8645 38.7648 61.873 40.3547V49.5057C61.873 49.9615 61.692 50.3987 61.3696 50.721C61.0473 51.0433 60.6101 51.2244 60.1543 51.2244C59.6985 51.2244 59.2613 51.0433 58.939 50.721C58.6166 50.3987 58.4355 49.9615 58.4355 49.5057V40.3547C58.4266 39.6768 58.1511 39.0297 57.6685 38.5535C57.186 38.0773 56.5354 37.8102 55.8574 37.8102C55.1795 37.8102 54.5288 38.0773 54.0463 38.5535C53.5638 39.0297 53.2882 39.6768 53.2793 40.3547V50.1838C53.2794 50.4095 53.2351 50.6331 53.1487 50.8416C53.0624 51.0502 52.9358 51.2398 52.7762 51.3994C52.6165 51.559 52.427 51.6856 52.2184 51.7719C52.0098 51.8583 51.7863 51.9026 51.5605 51.9025Z" fill="#0590DA"/>
<path d="M67.5851 40.0277L60.2183 32.5904C59.6593 32.0337 59.2162 31.3717 58.9146 30.6427C58.613 29.9137 58.4588 29.1321 58.461 28.3432C58.4631 27.5543 58.6216 26.7736 58.9273 26.0463C59.233 25.319 59.6797 24.6594 60.2418 24.1058C60.9361 23.4164 61.7877 22.9064 62.7232 22.6198C63.6587 22.3332 64.6499 22.2787 65.6112 22.4609C66.797 22.6845 67.8847 23.2697 68.7247 24.136L76.9442 32.4075C77.2656 32.7307 77.4454 33.1683 77.4442 33.6241C77.4429 34.0799 77.2606 34.5166 76.9374 34.838C76.6142 35.1594 76.1766 35.3392 75.7208 35.338C75.265 35.3367 74.8284 35.1544 74.507 34.8312L66.2742 26.5463C65.9235 26.1806 65.4677 25.933 64.97 25.838C64.5591 25.7588 64.1351 25.781 63.7347 25.9027C63.3343 26.0244 62.9696 26.2418 62.6722 26.5362C62.4264 26.7721 62.2311 27.0555 62.0981 27.3691C61.9651 27.6827 61.8971 28.0201 61.8984 28.3607C61.896 28.6949 61.961 29.0261 62.0893 29.3347C62.2176 29.6432 62.4067 29.9228 62.6453 30.1567L69.9685 37.5486L68.8154 38.8276L67.5851 40.0277Z" fill="#0590DA"/>
<path d="M68.748 47.7474C68.5223 47.7475 68.2987 47.7032 68.0902 47.6168C67.8816 47.5305 67.692 47.4039 67.5324 47.2443C67.3728 47.0847 67.2462 46.8951 67.1599 46.6865C67.0735 46.478 67.0292 46.2544 67.0293 46.0286V36.886C67.0375 35.7809 67.3512 34.6996 67.9356 33.7616C68.5199 32.8236 69.3523 32.0655 70.3406 31.571C71.3289 31.0765 72.4348 30.8649 73.5358 30.9595C74.6369 31.0542 75.6904 31.4515 76.5798 32.1074C76.8306 32.2712 77.064 32.4602 77.2763 32.6714C78.0936 33.4667 78.6632 34.4817 78.9162 35.5937C79.0128 36.0177 79.0613 36.4513 79.0605 36.8862V42.6517C79.0605 43.1075 78.8795 43.5447 78.5571 43.867C78.2348 44.1894 77.7976 44.3704 77.3418 44.3704C76.886 44.3704 76.4488 44.1894 76.1265 43.867C75.8041 43.5447 75.623 43.1075 75.623 42.6517V36.9884C75.6278 36.7783 75.6086 36.5682 75.566 36.3624C75.4586 35.8912 75.2166 35.4615 74.8694 35.1253C74.8271 35.0817 74.781 35.0418 74.7318 35.0062C74.6848 34.976 74.6025 34.9222 74.5589 34.8887C74.1241 34.5562 73.5922 34.3758 73.0449 34.3751C72.3727 34.375 71.727 34.6374 71.2454 35.1065C70.7639 35.5755 70.4845 36.214 70.4668 36.886V46.0286C70.4669 46.2544 70.4226 46.478 70.3362 46.6865C70.2499 46.8951 70.1233 47.0847 69.9637 47.2443C69.804 47.4039 69.6145 47.5305 69.4059 47.6168C69.1974 47.7032 68.9738 47.7475 68.748 47.7474Z" fill="#0590DA"/>
<path d="M49.7377 32.7251C49.512 32.7252 49.2884 32.6808 49.0799 32.5945C48.8713 32.5082 48.6817 32.3816 48.5221 32.222C48.3625 32.0623 48.2359 31.8728 48.1496 31.6642C48.0632 31.4556 48.0189 31.2321 48.019 31.0063C48.0204 30.8614 48.039 30.7172 48.0744 30.5766C48.1045 30.424 48.1208 30.269 48.123 30.1134V18.0134C48.1219 17.6797 48.0542 17.3496 47.9239 17.0424C47.7937 16.7351 47.6034 16.457 47.3644 16.2242C47.0062 15.8656 46.5501 15.6206 46.0533 15.5201C45.5565 15.4195 45.0411 15.4677 44.5716 15.6588C44.1021 15.8498 43.6994 16.1751 43.4139 16.5939C43.1284 17.0128 42.9729 17.5066 42.9668 18.0134V30.1134C42.9689 30.2827 42.9875 30.4513 43.0222 30.617C43.1031 31.0631 43.0044 31.5231 42.7477 31.8968C42.4909 32.2704 42.097 32.5276 41.6516 32.6121C41.2061 32.6967 40.7454 32.6018 40.3695 32.3482C39.9937 32.0946 39.7334 31.7028 39.6451 31.2581C39.5695 30.8812 39.5307 30.4978 39.5293 30.1134V18.0134C39.5353 16.8277 39.8918 15.6702 40.5539 14.6865C41.216 13.7028 42.1542 12.9369 43.2504 12.485C44.3467 12.0331 45.5521 11.9155 46.715 12.1468C47.878 12.3782 48.9466 12.9482 49.7864 13.7853C50.3483 14.3368 50.7945 14.9948 51.0991 15.7207C51.4038 16.4467 51.5606 17.2261 51.5605 18.0134V30.1134C51.5586 30.4979 51.5192 30.8812 51.4431 31.2581C51.4363 31.3 51.4245 31.342 51.4162 31.3823C51.3306 31.7635 51.1177 32.1042 50.8126 32.3483C50.5076 32.5924 50.1284 32.7253 49.7377 32.7251Z" fill="#0590DA"/>
<path d="M61.0993 32.7242H61.0137C59.4225 32.7208 57.8972 32.0884 56.7703 30.965C55.6434 29.8416 55.0064 28.3182 54.998 26.727V14.5918C54.998 12.9964 55.6318 11.4663 56.76 10.3381C57.8881 9.20996 59.4182 8.57617 61.0137 8.57617C62.6091 8.57617 64.1392 9.20996 65.2674 10.3381C66.3955 11.4663 67.0293 12.9964 67.0293 14.5918C67.0293 17.7758 67.0293 20.975 67.0108 24.1591C67.0081 24.6131 66.8259 25.0477 66.5039 25.3679C66.1818 25.688 65.7462 25.8677 65.2921 25.8677H65.282C64.8262 25.865 64.3901 25.6814 64.0696 25.3572C63.7492 25.033 63.5707 24.5948 63.5733 24.1389C63.5918 20.9616 63.5918 17.7692 63.5918 14.5918C63.5909 14.2574 63.5237 13.9264 63.3941 13.6181C63.2644 13.3099 63.0749 13.0304 62.8365 12.7958C62.4789 12.4334 62.0218 12.1853 61.523 12.0829C61.0243 11.9806 60.5064 12.0287 60.035 12.221C59.5636 12.4134 59.1599 12.7414 58.8752 13.1635C58.5904 13.5855 58.4374 14.0827 58.4355 14.5918V26.7271C58.4362 27.0614 58.5031 27.3923 58.6324 27.7006C58.7618 28.0089 58.951 28.2884 59.1892 28.5231C59.4274 28.7651 59.7114 28.9572 60.0247 29.0883C60.3379 29.2194 60.6741 29.2869 61.0137 29.2867C61.474 29.2849 61.9166 29.464 62.2459 29.7856C62.5753 30.1071 62.7651 30.5452 62.7744 31.0055C62.7794 31.2289 62.7398 31.451 62.658 31.659C62.5761 31.8669 62.4536 32.0564 62.2976 32.2164C62.1417 32.3765 61.9554 32.5038 61.7496 32.591C61.5438 32.6782 61.3228 32.7235 61.0993 32.7242Z" fill="#0590DA"/>
<path d="M77.9803 39.5072C77.6849 39.5074 77.3899 39.4867 77.0975 39.4451C76.6468 39.3797 76.2405 39.1383 75.9677 38.7736C75.6949 38.409 75.5779 37.9511 75.6423 37.5003C75.7068 37.0495 75.9475 36.6427 76.3115 36.3692C76.6756 36.0956 77.1333 35.9777 77.5842 36.0412C77.9959 36.1054 78.4169 36.0727 78.8138 35.9457C79.2106 35.8187 79.5724 35.6008 79.8703 35.3095L88.6151 26.7375C88.8546 26.4995 89.0447 26.2166 89.1746 25.9049C89.3045 25.5932 89.3716 25.259 89.372 24.9214C89.3699 24.5892 89.3019 24.2608 89.1719 23.9551C89.042 23.6494 88.8527 23.3725 88.6151 23.1405C88.12 22.6463 87.4497 22.3677 86.7502 22.3655C86.0507 22.3633 85.3786 22.6376 84.8805 23.1287L76.1189 31.7024C75.891 31.9487 75.7076 32.2326 75.5767 32.5416C75.4007 32.9605 75.066 33.2926 74.6458 33.4654C74.2256 33.6382 73.754 33.6375 73.3343 33.4636C72.9145 33.2897 72.5807 32.9566 72.4058 32.5373C72.231 32.1179 72.2293 31.6463 72.4011 31.2257C72.7034 30.5055 73.1358 29.8472 73.6767 29.2837L82.4635 20.685C83.6047 19.5591 85.1436 18.9284 86.7467 18.9297C88.3497 18.9309 89.8877 19.564 91.027 20.6917C91.5909 21.2451 92.0389 21.9053 92.345 22.6337C92.651 23.3621 92.809 24.1442 92.8096 24.9343C92.8102 25.7244 92.6535 26.5067 92.3486 27.2356C92.0437 27.9645 91.5968 28.6253 91.0338 29.1797L82.2906 37.7499C81.1427 38.8825 79.5929 39.5144 77.9803 39.5072Z" fill="#0590DA"/>
<path d="M39.5293 47.0928C39.3036 47.093 39.08 47.0486 38.8714 46.9623C38.6628 46.8759 38.4733 46.7493 38.3137 46.5897C38.154 46.4301 38.0274 46.2406 37.9411 46.032C37.8548 45.8234 37.8104 45.5998 37.8105 45.3741V36.7283C37.8076 36.0926 37.5524 35.484 37.1012 35.0362C36.6499 34.5884 36.0394 34.3379 35.4036 34.3398H35.0427C34.4094 34.3404 33.8022 34.5922 33.3544 35.04C32.9066 35.4878 32.6548 36.095 32.6543 36.7283V41.9366C32.6543 42.3924 32.4732 42.8296 32.1509 43.1519C31.8286 43.4742 31.3914 43.6553 30.9355 43.6553C30.4797 43.6553 30.0425 43.4742 29.7202 43.1519C29.3979 42.8296 29.2168 42.3924 29.2168 41.9366V36.7283C29.2185 35.1837 29.8328 33.7028 30.9251 32.6106C32.0173 31.5184 33.4981 30.904 35.0428 30.9023H35.4037C36.9507 30.9016 38.4349 31.5146 39.5306 32.6068C40.6262 33.699 41.2439 35.1813 41.248 36.7283V45.3741C41.2482 45.5998 41.2038 45.8234 41.1175 46.032C41.0312 46.2406 40.9046 46.4301 40.7449 46.5897C40.5853 46.7493 40.3958 46.8759 40.1872 46.9623C39.9786 47.0486 39.755 47.093 39.5293 47.0928Z" fill="#0590DA"/>
</svg>
