<svg width="110" height="110" viewBox="0 0 110 110" fill="none" xmlns="http://www.w3.org/2000/svg">
<path d="M74.525 5.70703H34.8906V85.2508H97.0062V28.1195C96.9719 15.7445 86.9 5.70703 74.525 5.70703ZM93.2937 81.5383H38.6031V9.41953H74.4906C76.6906 9.48828 78.4438 11.2758 78.4438 13.5102V24.2695H89.2031C89.7531 24.2695 90.3031 24.3727 90.7844 24.5789C90.9563 24.6477 91.0594 24.7852 91.2313 24.8883C91.5063 25.0602 91.8156 25.1977 92.0563 25.4039C92.1938 25.5758 92.2969 25.782 92.4344 25.9539C92.6062 26.1945 92.8125 26.4008 92.95 26.6758C93.0188 26.882 93.0531 27.157 93.1219 27.3977C93.1906 27.6727 93.2937 27.9477 93.2937 28.257V81.5383Z" fill="#0590DA"/>
<path d="M29.6861 15.7363H25.9805V93.4307H86.2433V89.7251H29.6861V15.7363Z" fill="#0590DA"/>
<path d="M22.7144 100.4L16.6919 26.4453L13 26.7478L19.3319 104.487L55.1197 100.699L54.7313 97.0137L22.7144 100.4Z" fill="#0590DA"/>
<path d="M86.3989 66.666H45.4961V70.3716H86.3989V66.666Z" fill="#0590DA"/>
<path d="M86.3989 55.1484H45.4961V58.8541H86.3989V55.1484Z" fill="#0590DA"/>
<path d="M86.3989 43.625H45.4961V47.3306H86.3989V43.625Z" fill="#0590DA"/>
<path d="M86.3989 32.1055H45.4961V35.8111H86.3989V32.1055Z" fill="#0590DA"/>
<path d="M71.5489 20.5879H45.4961V24.2935H71.5489V20.5879Z" fill="#0590DA"/>
</svg>
