<svg width="110" height="110" viewBox="0 0 110 110" fill="none" xmlns="http://www.w3.org/2000/svg">
<path d="M71.1398 41.1117V41.0945C71.1398 41.0945 71.1398 41.0945 71.1398 41.0773C70.5726 35.4914 50.5148 33.9961 39.9617 33.9961C29.357 33.9961 9.19607 35.4914 8.76639 41.043C8.73201 41.1633 8.73201 41.2492 8.73201 41.3352V53.3148C3.47264 59.5195 1.01482 66.257 1.82264 72.3586C2.44139 76.9648 4.81326 80.9523 8.73201 84.0289V102.557C8.73201 103.674 9.45389 104.671 10.5195 105.049C20.2133 108.332 30.1133 109.999 39.9445 109.999C49.7242 109.999 59.6242 108.332 69.3867 105.049C70.4351 104.671 71.157 103.674 71.157 102.557V41.3352C71.157 41.2492 71.157 41.1633 71.1398 41.1461C71.1398 41.1289 71.1398 41.1289 71.1398 41.1117ZM68.8023 102.557C68.8023 102.66 68.7336 102.763 68.6304 102.798C59.1601 106.012 49.5179 107.627 39.9617 107.627C30.4054 107.627 20.7461 105.995 11.2586 102.78C11.1898 102.763 11.1039 102.66 11.1039 102.54V85.6445C14.4039 87.5867 18.4086 88.7211 22.8086 88.9445C23.4789 88.9789 24.132 88.9961 24.7679 88.9961C32.5539 88.9961 39.4461 86.6758 45.2726 82.0867C46.682 80.9695 48.0742 79.6289 49.6039 77.8586L63.3023 62.1492C63.8523 63.6102 65.2789 64.6586 66.9289 64.6586C67.6164 64.6586 68.2351 64.4523 68.7851 64.1258V102.557H68.8023ZM63.0445 58.8664C63.0273 58.8836 63.0101 58.8836 62.9929 58.9008L59.0226 63.4555V58.4195C59.0226 57.3023 59.9336 56.4086 61.0336 56.4086C62.1508 56.4086 63.0273 57.3195 63.0273 58.4195V58.8664H63.0445ZM11.1039 44.4117C15.2117 46.7664 23.7883 47.7805 28.6867 48.1758C28.7039 48.1758 28.7039 48.1758 28.7211 48.1758V70.0555C28.7211 72.1867 30.4398 73.9227 32.5883 73.9227C34.7023 73.9227 36.4554 72.2039 36.4554 70.0555V59.3305C36.4554 58.3336 37.2633 57.543 38.2258 57.543C39.2226 57.543 40.0133 58.3508 40.0133 59.3305V61.032C40.0133 63.1633 41.7492 64.8992 43.8805 64.8992C46.0117 64.8992 47.7648 63.1805 47.7648 61.032V55.9102C47.7648 54.8102 48.6414 53.9508 49.707 53.9508C50.807 53.9508 51.6664 54.8273 51.6664 55.9102V64.0055C51.6664 66.0336 53.3164 67.6836 55.3445 67.7008L47.8508 76.2945C46.407 77.9445 45.1351 79.1992 43.8289 80.2305C38.432 84.4758 32.0211 86.6414 24.7679 86.6414C24.1664 86.6414 23.5476 86.6242 22.9289 86.5898C18.5117 86.3664 14.5414 85.1633 11.4476 83.0836C11.3273 82.9977 11.2242 82.9117 11.1039 82.843V44.4117ZM68.8023 41.3352C68.8023 43.0883 57.8539 46.2852 39.9445 46.2852C36.3867 46.2852 32.9492 46.1648 29.8211 45.9242C29.7179 45.8898 29.6148 45.8898 29.5461 45.8898H29.5289C17.6695 44.9789 11.1039 42.607 11.1039 41.3352C11.1039 39.582 22.0523 36.3852 39.9445 36.3852C57.8367 36.3852 68.8023 39.582 68.8023 41.3352ZM8.73201 80.9008C6.18826 78.4258 4.6242 75.418 4.17732 72.0492C3.55857 67.357 5.1742 62.1664 8.73201 57.1648V80.9008Z" fill="#0590DA"/>
<path d="M107.148 8.07812H100.05V5.19062C100.05 2.32031 97.7125 0 94.8594 0H59.3156C56.4453 0 54.125 2.3375 54.125 5.19062V13.3203C54.125 16.1906 56.4625 18.5109 59.3156 18.5109H94.8422C97.7125 18.5109 100.033 16.1734 100.033 13.3203V10.4328H105.945V23.0141L84.3406 31.9344C83.8937 32.1234 83.6016 32.5531 83.6016 33.0344V48.0734H82.4672C79.7516 48.0734 77.5516 50.2906 77.5516 53.0063V77.7219C77.5516 80.4375 79.7516 82.6375 82.4672 82.6375H87.4344C90.15 82.6375 92.35 80.4375 92.35 77.7219V53.0234C92.35 50.3078 90.15 48.0906 87.4344 48.0906H85.9734V33.8422L107.578 24.9219C108.025 24.7328 108.317 24.3031 108.317 23.8219V9.26406C108.334 8.61094 107.802 8.07812 107.148 8.07812ZM90.0469 7.39063V11.1203C90.0469 11.5844 89.6687 11.9625 89.1875 11.9625C88.7234 11.9625 88.3453 11.5844 88.3453 11.1203V7.39063C88.3453 6.92656 88.7234 6.54844 89.1875 6.54844C89.6687 6.56562 90.0469 6.92656 90.0469 7.39063ZM81.9687 7.39063V11.1203C81.9687 11.5844 81.5906 11.9625 81.1266 11.9625C80.6453 11.9625 80.2672 11.5844 80.2672 11.1203V7.39063C80.2672 6.92656 80.6453 6.54844 81.1266 6.54844C81.5906 6.56562 81.9687 6.92656 81.9687 7.39063ZM73.8906 7.39063V11.1203C73.8906 11.5844 73.5125 11.9625 73.0484 11.9625C72.5844 11.9625 72.2062 11.5844 72.2062 11.1203V7.39063C72.2062 6.92656 72.5844 6.54844 73.0484 6.54844C73.5125 6.54844 73.8906 6.92656 73.8906 7.39063ZM65.8125 7.39063V11.1203C65.8125 11.5844 65.4344 11.9625 64.9703 11.9625C64.5062 11.9625 64.1281 11.5844 64.1281 11.1203V7.39063C64.1281 6.92656 64.5062 6.54844 64.9703 6.54844C65.4344 6.56562 65.8125 6.92656 65.8125 7.39063ZM81.1266 75.2125C81.1266 73.1844 82.7766 71.5344 84.8219 71.5344C86.85 71.5344 88.5 73.1672 88.5 75.2125C88.5 77.2406 86.8672 78.9078 84.8219 78.9078C82.7766 78.8906 81.1266 77.2406 81.1266 75.2125Z" fill="#0590DA"/>
<path d="M86.798 75.2125C86.798 74.1125 85.8871 73.2188 84.8043 73.2188C83.6871 73.2188 82.8105 74.1297 82.8105 75.2125C82.8105 76.3297 83.7043 77.2062 84.8043 77.2062C85.9043 77.2062 86.798 76.3125 86.798 75.2125Z" fill="#0590DA"/>
</svg>
